<?xml version="1.0" encoding="UTF-8" standalone="no"?>
<svg
   version="1.1"
   id="Layer_1"
   x="0px"
   y="0px"
   xml:space="preserve"
   sodipodi:docname="head-cropped.svg"
   inkscape:version="1.3.2 (091e20e, 2023-11-25, custom)"
   viewBox="322.48 171.82 389.91 556.88"
   xmlns:inkscape="http://www.inkscape.org/namespaces/inkscape"
   xmlns:sodipodi="http://sodipodi.sourceforge.net/DTD/sodipodi-0.dtd"
   xmlns="http://www.w3.org/2000/svg"
   xmlns:svg="http://www.w3.org/2000/svg"><defs
   id="defs132" /><sodipodi:namedview
   id="namedview132"
   pagecolor="#ffffff"
   bordercolor="#000000"
   borderopacity="0.25"
   inkscape:showpageshadow="2"
   inkscape:pageopacity="0.0"
   inkscape:pagecheckerboard="0"
   inkscape:deskcolor="#d1d1d1"
   inkscape:zoom="0.57487781"
   inkscape:cx="793.21203"
   inkscape:cy="428.78677"
   inkscape:window-width="1920"
   inkscape:window-height="1009"
   inkscape:window-x="-32000"
   inkscape:window-y="-32000"
   inkscape:window-maximized="0"
   inkscape:current-layer="Layer_1" />
<style
   type="text/css"
   id="style1">
	.st0{fill:url(#SVGID_1_);}
	.st1{fill:url(#SVGID_2_);}
	.st2{fill:url(#SVGID_3_);}
	.st3{fill:#FFFFFF;}
	.st4{fill:url(#SVGID_4_);}
	.st5{fill:url(#SVGID_5_);}
	.st6{fill:url(#SVGID_6_);}
	.st7{fill:url(#SVGID_7_);}
	.st8{fill:url(#SVGID_8_);}
	.st9{fill:url(#SVGID_9_);}
	.st10{fill:url(#SVGID_10_);}
	.st11{fill:url(#SVGID_11_);}
	.st12{fill:url(#SVGID_12_);}
	.st13{fill:url(#SVGID_13_);}
	.st14{fill:url(#SVGID_14_);}
	.st15{fill:url(#SVGID_15_);}
	.st16{fill:url(#SVGID_16_);}
	.st17{fill:url(#SVGID_17_);}
	.st18{fill:url(#SVGID_18_);}
	.st19{fill:url(#SVGID_19_);}
	.st20{fill:url(#SVGID_20_);}
	.st21{fill:url(#SVGID_21_);}
	.st22{fill:url(#SVGID_22_);}
	.st23{fill:url(#SVGID_23_);}
	.st24{fill:url(#SVGID_24_);}
	.st25{fill:url(#SVGID_25_);}
	.st26{fill:url(#SVGID_26_);}
	.st27{fill:url(#SVGID_27_);}
	.st28{fill:url(#SVGID_28_);}
	.st29{fill:url(#SVGID_29_);}
	.st30{fill:url(#SVGID_30_);}
	.st31{fill:url(#SVGID_31_);}
	.st32{fill:url(#SVGID_32_);}
	.st33{fill:url(#SVGID_33_);}
	.st34{fill:url(#SVGID_34_);}
	.st35{fill:url(#SVGID_35_);}
	.st36{fill:url(#SVGID_36_);}
	.st37{fill:url(#SVGID_37_);}
	.st38{fill:url(#SVGID_38_);}
	.st39{fill:url(#SVGID_39_);}
	.st40{fill:url(#SVGID_40_);}
	.st41{fill:url(#SVGID_41_);}
	.st42{fill:url(#SVGID_42_);}
	.st43{fill:url(#SVGID_43_);}
	.st44{fill:url(#SVGID_44_);}
	.st45{fill:url(#SVGID_45_);}
	.st46{fill:url(#SVGID_46_);}
	.st47{fill:url(#SVGID_47_);}
	.st48{fill:url(#SVGID_48_);}
	.st49{fill:url(#SVGID_49_);}
	.st50{fill:url(#SVGID_50_);}
	.st51{fill:url(#SVGID_51_);}
	.st52{fill:url(#SVGID_52_);}
	.st53{fill:url(#SVGID_53_);}
	.st54{fill:url(#SVGID_54_);}
	.st55{fill:url(#SVGID_55_);}
	.st56{fill:url(#SVGID_56_);}
	.st57{fill:url(#SVGID_57_);}
</style>
<g
   id="g132"
   transform="translate(-1026.305,-26.092501)"
   style="fill:#2e2e2e;fill-opacity:1"
   inkscape:export-filename="minerva_logo_2E2E2E.svg"
   inkscape:export-xdpi="96"
   inkscape:export-ydpi="96">
	<linearGradient
   id="SVGID_1_"
   gradientUnits="userSpaceOnUse"
   x1="1433.5406"
   y1="222.55859"
   x2="1752.4082"
   y2="541.42603">
		<stop
   offset="0"
   style="stop-color:#00FBF0"
   id="stop1" />
		<stop
   offset="1"
   style="stop-color:#006CF3"
   id="stop2" />
	</linearGradient>
	<circle
   class="st0"
   cx="1491.97"
   cy="280.98999"
   r="11.87"
   id="circle2"
   style="fill:#2e2e2e;fill-opacity:1" />
	<linearGradient
   id="SVGID_2_"
   gradientUnits="userSpaceOnUse"
   x1="1476.562"
   y1="179.53729"
   x2="1795.4294"
   y2="498.40479">
		<stop
   offset="0"
   style="stop-color:#00FBF0"
   id="stop3" />
		<stop
   offset="1"
   style="stop-color:#006CF3"
   id="stop4" />
	</linearGradient>
	<circle
   class="st1"
   cx="1549.42"
   cy="252.39"
   r="6.1300001"
   id="circle4"
   style="fill:#2e2e2e;fill-opacity:1" />
	<linearGradient
   id="SVGID_3_"
   gradientUnits="userSpaceOnUse"
   x1="1477.5833"
   y1="178.51601"
   x2="1796.4507"
   y2="497.38351">
		<stop
   offset="0"
   style="stop-color:#00FBF0"
   id="stop5" />
		<stop
   offset="1"
   style="stop-color:#006CF3"
   id="stop6" />
	</linearGradient>
	<circle
   class="st2"
   cx="1594.01"
   cy="294.94"
   r="12.6"
   id="circle6"
   style="fill:#2e2e2e;fill-opacity:1" />
	
	<g
   id="g25"
   style="fill:#2e2e2e;fill-opacity:1">
		<linearGradient
   id="SVGID_4_"
   gradientUnits="userSpaceOnUse"
   x1="1289.9875"
   y1="366.11179"
   x2="1608.855"
   y2="684.97919">
			<stop
   offset="0"
   style="stop-color:#00FBF0"
   id="stop24" />
			<stop
   offset="1"
   style="stop-color:#006CF3"
   id="stop25" />
		</linearGradient>
		<path
   class="st4"
   d="m 1369.01,536.79 c -11.41,-4.02 -17.1,-12.43 -19.47,-17.09 -1.57,-3.07 -0.62,-6.77 2.25,-8.8 9.53,-6.72 16.34,-15.29 20.38,-21.31 3.01,-4.48 4.98,-9.22 5.84,-14.08 1.18,-6.65 -0.49,-8.66 -3.03,-11.72 -2.15,-2.6 -4.83,-5.83 -6.09,-12.4 -3.14,-16.38 30.23,-62.71 34.05,-67.94 l 3.23,2.36 c -10.08,13.82 -35.73,52.41 -33.35,64.83 1.07,5.56 3.19,8.12 5.24,10.6 2.77,3.34 5.39,6.5 3.88,14.97 -0.96,5.41 -3.13,10.66 -6.46,15.61 -4.23,6.29 -11.38,15.27 -21.4,22.34 -1.23,0.87 -1.65,2.43 -0.99,3.71 2.1,4.12 7.13,11.57 17.23,15.13 z"
   id="path25"
   style="fill:#2e2e2e;fill-opacity:1" />
	</g>
	<g
   id="g27"
   style="fill:#2e2e2e;fill-opacity:1">
		<linearGradient
   id="SVGID_5_"
   gradientUnits="userSpaceOnUse"
   x1="1238.7634"
   y1="417.33578"
   x2="1557.6309"
   y2="736.20331">
			<stop
   offset="0"
   style="stop-color:#00FBF0"
   id="stop26" />
			<stop
   offset="1"
   style="stop-color:#006CF3"
   id="stop27" />
		</linearGradient>
		<path
   class="st5"
   d="m 1364.62,531.31 c -0.02,0.13 -0.25,1.31 -0.93,3.09 -0.79,2.11 -2.19,5.06 -4.58,8.11 -0.67,0.85 -1.41,1.71 -2.24,2.55 -0.59,-0.06 -1.39,-0.07 -1.74,0.32 -0.03,0.03 -0.06,0.07 -0.08,0.11 l -2.05,-2.23 c 0.07,-0.08 0.15,-0.15 0.23,-0.22 4.26,-4.04 6.21,-8.51 7,-10.84 0.33,-1 0.46,-1.62 0.46,-1.64 z"
   id="path27"
   style="fill:#2e2e2e;fill-opacity:1" />
	</g>
	<g
   id="g30"
   style="fill:#2e2e2e;fill-opacity:1">
		<g
   id="g29"
   style="fill:#2e2e2e;fill-opacity:1">
			<linearGradient
   id="SVGID_6_"
   gradientUnits="userSpaceOnUse"
   x1="1233.11"
   y1="422.98929"
   x2="1551.9774"
   y2="741.85681">
				<stop
   offset="0"
   style="stop-color:#00FBF0"
   id="stop28" />
				<stop
   offset="1"
   style="stop-color:#006CF3"
   id="stop29" />
			</linearGradient>
			<path
   class="st6"
   d="m 1385.08,563.64 c -0.34,-0.16 -0.67,-0.31 -0.99,-0.47 -6.06,-2.91 -8.99,-5.48 -9.95,-6.44 -0.22,-0.21 -0.34,-0.34 -0.37,-0.38 l -0.01,-0.01 c -0.22,-0.22 -0.41,-0.44 -0.57,-0.66 -3.75,-5.19 -9.1,-11.44 -14.08,-13.17 -0.49,-0.17 -0.97,-0.29 -1.45,-0.37 -1.9,-0.31 -3.39,0 -4.43,0.9 -0.08,0.07 -0.16,0.14 -0.23,0.22 l -0.09,0.09 c -1.66,1.81 -1.02,4.58 -0.95,4.89 l 5.6,11.65 1.08,-0.14 c 0.09,-0.02 9.8,-1.25 14.63,1.97 0.52,0.35 1,0.66 1.45,0.95 1.11,0.73 2.02,1.29 2.76,1.74 h 0.01 c 1.98,1.2 2.74,1.5 2.92,1.56 l 0.26,0.09 3.59,-0.07 c 0.42,-0.24 0.83,-0.45 1.19,-0.64 0.98,-0.5 1.68,-0.8 1.68,-0.8 -0.72,-0.3 -1.4,-0.61 -2.05,-0.91 z m -22.12,-7.14 c -1.5,0 -2.78,0.08 -3.63,0.16 l -4.48,-9.27 c -0.09,-0.5 -0.13,-1.41 0.2,-1.9 0.02,-0.04 0.05,-0.08 0.08,-0.11 0.35,-0.39 1.15,-0.38 1.74,-0.32 0.12,0.01 0.22,0.02 0.31,0.04 3.34,0.54 8.28,5.03 13.56,12.31 -2.63,-0.71 -5.47,-0.91 -7.78,-0.91 z"
   id="path29"
   style="fill:#2e2e2e;fill-opacity:1" />
		</g>
	</g>
	<g
   id="g32"
   style="fill:#2e2e2e;fill-opacity:1">
		<g
   id="g31"
   style="fill:#2e2e2e;fill-opacity:1">
			<linearGradient
   id="SVGID_7_"
   gradientUnits="userSpaceOnUse"
   x1="1228.8883"
   y1="427.211"
   x2="1547.7557"
   y2="746.07843">
				<stop
   offset="0"
   style="stop-color:#00FBF0"
   id="stop30" />
				<stop
   offset="1"
   style="stop-color:#006CF3"
   id="stop31" />
			</linearGradient>
			<path
   class="st7"
   d="m 1385.08,563.64 c -0.34,-0.16 -0.67,-0.31 -0.99,-0.47 -0.01,0 -0.03,0.01 -0.04,0.01 -1.22,0.22 -3.88,0.55 -7.14,-0.01 -0.7,-0.12 -1.44,-0.28 -2.19,-0.5 -0.17,-0.04 -0.34,-0.09 -0.51,-0.14 -0.61,-0.19 -1.2,-0.38 -1.77,-0.56 -5.43,-1.73 -9.73,-3.1 -14.83,-0.16 -2.56,1.48 -3.58,4.73 -2.66,8.5 0.8,3.27 3.03,6.64 6.05,7.95 0.75,0.32 1.56,0.52 2.4,0.56 0.19,0.01 0.38,0.01 0.58,0.01 0.39,0 0.78,-0.02 1.15,-0.05 5.59,-0.49 10,-4.52 14.62,-9.46 0.23,-0.23 0.45,-0.47 0.67,-0.71 0.26,-0.23 0.69,-0.56 1.21,-0.92 0.02,-0.02 0.03,-0.03 0.05,-0.03 0.83,-0.63 1.74,-1.2 2.58,-1.67 0.42,-0.24 0.83,-0.45 1.19,-0.64 z m -6.7,2.77 -0.1,0.11 c -4.57,4.93 -8.82,9.08 -13.83,9.3 -0.3,0.02 -0.61,0.02 -0.92,0 -0.43,-0.02 -0.85,-0.12 -1.26,-0.29 -2.08,-0.85 -3.8,-3.45 -4.4,-5.93 -0.23,-0.92 -0.8,-4.01 1.23,-5.19 1.65,-0.94 3.15,-1.32 4.73,-1.32 2.23,0 4.61,0.75 7.7,1.74 0.57,0.18 1.17,0.37 1.78,0.56 1.82,0.57 3.54,0.87 5.09,1 -0.01,0.01 -0.01,0.02 -0.02,0.02 z"
   id="path31"
   style="fill:#2e2e2e;fill-opacity:1" />
		</g>
	</g>
	<g
   id="g33"
   style="fill:#2e2e2e;fill-opacity:1">
		<linearGradient
   id="SVGID_8_"
   gradientUnits="userSpaceOnUse"
   x1="1243.8811"
   y1="412.21811"
   x2="1562.7485"
   y2="731.08557">
			<stop
   offset="0"
   style="stop-color:#00FBF0"
   id="stop32" />
			<stop
   offset="1"
   style="stop-color:#006CF3"
   id="stop33" />
		</linearGradient>
		<path
   class="st8"
   d="m 1498.26,589.55 c -15.19,10.01 -44.15,18.54 -71.44,23.06 -1.71,0.29 -3.41,0.55 -5.1,0.81 h -0.01 c -11.55,1.71 -22.62,2.67 -31.99,2.67 -11.75,0 -20.84,-1.5 -24.9,-4.89 -11.84,-9.87 -6.84,-25.93 -3.82,-32.94 0.51,-1.2 0.97,-2.14 1.27,-2.73 0.41,0.17 0.83,0.27 1.26,0.29 0.31,0.02 0.62,0.02 0.92,0 l 1.68,0.96 c -0.02,0.04 -0.43,0.77 -1,2 -2.52,5.44 -8.21,20.64 2.25,29.35 5.93,4.94 26.58,5.13 50.28,1.93 1.77,-0.24 3.56,-0.5 5.36,-0.78 27.13,-4.17 57.02,-12.51 73.04,-23.07 z"
   id="path33"
   style="fill:#2e2e2e;fill-opacity:1" />
	</g>
	<g
   id="g35"
   style="fill:#2e2e2e;fill-opacity:1">
		<linearGradient
   id="SVGID_9_"
   gradientUnits="userSpaceOnUse"
   x1="1227.6479"
   y1="428.45139"
   x2="1546.5154"
   y2="747.31879">
			<stop
   offset="0"
   style="stop-color:#00FBF0"
   id="stop34" />
			<stop
   offset="1"
   style="stop-color:#006CF3"
   id="stop35" />
		</linearGradient>
		<path
   class="st9"
   d="m 1459.22,669.94 -3.78,1.32 c -12.55,-36.2 -26.8,-51.92 -33.72,-57.84 h -0.01 c -2.58,-2.22 -4.13,-3.06 -4.19,-3.09 l 0.14,-0.27 c 1.77,-0.24 3.56,-0.5 5.36,-0.78 1.08,0.85 2.35,1.94 3.8,3.33 7.94,7.63 20.9,24.13 32.4,57.33 z"
   id="path35"
   style="fill:#2e2e2e;fill-opacity:1" />
	</g>
	<g
   id="g37"
   style="fill:#2e2e2e;fill-opacity:1">
		<linearGradient
   id="SVGID_10_"
   gradientUnits="userSpaceOnUse"
   x1="1353.4775"
   y1="302.6218"
   x2="1672.345"
   y2="621.4892">
			<stop
   offset="0"
   style="stop-color:#00FBF0"
   id="stop36" />
			<stop
   offset="1"
   style="stop-color:#006CF3"
   id="stop37" />
		</linearGradient>
		<path
   class="st10"
   d="m 1473.57,402.76 c 0,0.01 0,0.01 -0.01,0.02 -0.53,1.5 -1.18,2.94 -1.95,4.28 -3.68,6.45 -9.91,10.98 -17.23,12.39 v 0.01 c -0.52,0.1 -1.05,0.18 -1.58,0.25 -0.8,0.1 -1.6,0.17 -2.42,0.21 -0.44,0.02 -0.89,0.03 -1.34,0.03 -2.09,0 -4.24,-0.21 -6.44,-0.64 -1.3,-0.25 -2.6,-0.57 -3.93,-0.97 -1.72,-0.51 -3.48,-1.15 -5.27,-1.9 -20.96,-8.92 -25.2,-20.38 -25.82,-26.6 -0.04,-0.34 -0.06,-0.66 -0.08,-0.96 -0.08,-1.8 0.13,-3.02 0.21,-3.4 l 3.79,1.78 c -0.05,0.7 -0.05,1.74 0.15,3.04 0.08,0.5 0.19,1.03 0.33,1.6 h 0.01 c 1.42,5.43 6.45,13.83 22.98,20.86 1.4,0.6 2.78,1.11 4.13,1.53 1.32,0.42 2.61,0.76 3.88,1.02 2.57,0.52 5.05,0.72 7.41,0.6 0.64,-0.03 1.27,-0.09 1.89,-0.17 0.73,-0.09 1.45,-0.22 2.15,-0.39 5.81,-1.36 10.73,-5.07 13.7,-10.27 v -0.01 c 0.32,-0.54 0.6,-1.1 0.87,-1.67 0.3,-0.64 0.56,-1.3 0.8,-1.97 2.76,-7.81 1.05,-15.97 -4.56,-21.83 -0.17,-0.18 -0.35,-0.35 -0.52,-0.53 -4.14,-4.08 -9.84,-5.92 -15.24,-4.92 -3.44,0.63 -6.33,2.23 -8.66,4.76 -0.04,0.04 -0.07,0.08 -0.11,0.12 -0.64,0.7 -1.23,1.46 -1.77,2.29 -0.46,0.68 -0.88,1.41 -1.27,2.18 l -2.27,-1.14 -1.3,-0.66 c 0.34,-0.67 0.7,-1.32 1.09,-1.94 h 0.01 c 0.2,-0.34 0.41,-0.67 0.64,-0.99 3.16,-4.64 7.58,-7.57 12.91,-8.56 6.68,-1.23 13.71,1.01 18.78,6.02 0.2,0.2 0.4,0.4 0.6,0.61 6.57,6.87 8.66,16.8 5.44,25.92 z"
   id="path37"
   style="fill:#2e2e2e;fill-opacity:1" />
	</g>
	<g
   id="g39"
   style="fill:#2e2e2e;fill-opacity:1">
		<linearGradient
   id="SVGID_11_"
   gradientUnits="userSpaceOnUse"
   x1="1251.1929"
   y1="404.9064"
   x2="1570.0603"
   y2="723.77393">
			<stop
   offset="0"
   style="stop-color:#00FBF0"
   id="stop38" />
			<stop
   offset="1"
   style="stop-color:#006CF3"
   id="stop39" />
		</linearGradient>
		<path
   class="st11"
   d="m 1381.64,531.94 c -7.94,0 -11.66,-4.08 -13.92,-6.56 -0.47,-0.52 -0.88,-0.97 -1.22,-1.25 -0.69,-0.58 -2.49,0.7 -3.03,1.21 l -2.75,-2.91 c 1.75,-1.66 5.48,-3.82 8.38,-1.35 0.53,0.45 1.04,1.01 1.58,1.6 2.11,2.31 4.97,5.47 11.69,5.24 l 0.14,4 c -0.3,0.01 -0.58,0.02 -0.87,0.02 z"
   id="path39"
   style="fill:#2e2e2e;fill-opacity:1" />
	</g>
	<g
   id="g41"
   style="fill:#2e2e2e;fill-opacity:1">
		<linearGradient
   id="SVGID_12_"
   gradientUnits="userSpaceOnUse"
   x1="1336.3723"
   y1="319.7269"
   x2="1655.2397"
   y2="638.59442">
			<stop
   offset="0"
   style="stop-color:#00FBF0"
   id="stop40" />
			<stop
   offset="1"
   style="stop-color:#006CF3"
   id="stop41" />
		</linearGradient>
		<path
   class="st12"
   d="m 1536.16,514.29 c -0.44,0.7 -0.91,1.38 -1.39,2.04 -0.4,0.55 -0.81,1.08 -1.23,1.6 -1.01,1.25 -2.07,2.41 -3.16,3.48 -0.98,0.96 -2,1.84 -3.04,2.65 -4.93,3.8 -10.43,5.79 -16.04,5.79 -2.65,0 -5.33,-0.45 -7.98,-1.36 -10.36,-3.56 -16.18,-11.01 -19.43,-18.79 -0.71,-1.68 -1.29,-3.38 -1.78,-5.06 -2.97,-10.37 -2.11,-19.93 -2.09,-20.11 l 3.99,0.39 c -0.02,0.19 -1,11.08 2.94,21.68 0.58,1.56 1.27,3.12 2.08,4.63 3.07,5.72 7.93,10.85 15.59,13.48 6.7,2.3 13.67,1 19.77,-3.46 1.05,-0.77 2.08,-1.63 3.07,-2.59 1.02,-0.97 1.99,-2.03 2.93,-3.19 l 0.01,-0.01 c 0.39,-0.49 0.77,-0.99 1.15,-1.5 0.17,-0.23 0.33,-0.46 0.49,-0.69 7.08,-10.15 10.26,-25.37 2.75,-35.52 -1.01,-1.36 -2.15,-2.58 -3.4,-3.67 -0.54,-0.47 -1.09,-0.91 -1.67,-1.32 -2.02,-1.48 -4.28,-2.68 -6.74,-3.67 -1.62,-0.66 -3.32,-1.22 -5.09,-1.7 -4.17,-1.15 -8.73,-1.89 -13.53,-2.44 h -0.01 c -4.08,-0.47 -8.32,-0.81 -12.63,-1.15 -0.38,-0.03 -0.76,-0.06 -1.14,-0.09 0,0 0,0 -0.01,0 -11.29,-0.9 -22.87,-1.92 -32.28,-5.72 -19.52,-7.89 -20.3,-29.93 -19.62,-39.65 0.13,-1.87 0.31,-3.28 0.43,-4.05 1.32,0.42 2.61,0.76 3.88,1.02 -0.12,0.85 -0.28,2.24 -0.38,4 -0.54,9.1 0.46,28.2 17.19,34.97 6.15,2.48 13.45,3.72 21.03,4.53 3.41,0.37 6.88,0.65 10.31,0.93 h 0.01 c 0.3,0.02 0.6,0.05 0.9,0.07 10.77,0.86 21.76,1.73 30.86,5.01 1.79,0.64 3.51,1.38 5.14,2.23 1.66,0.86 3.22,1.84 4.67,2.96 1.56,1.19 3,2.55 4.29,4.08 0.35,0.41 0.68,0.84 1.01,1.28 8.32,11.24 5.45,27.6 -1.85,38.92 z"
   id="path41"
   style="fill:#2e2e2e;fill-opacity:1" />
	</g>
	<g
   id="g43"
   style="fill:#2e2e2e;fill-opacity:1">
		<linearGradient
   id="SVGID_13_"
   gradientUnits="userSpaceOnUse"
   x1="1331.9824"
   y1="324.11691"
   x2="1650.8499"
   y2="642.98431">
			<stop
   offset="0"
   style="stop-color:#00FBF0"
   id="stop42" />
			<stop
   offset="1"
   style="stop-color:#006CF3"
   id="stop43" />
		</linearGradient>
		<path
   class="st13"
   d="m 1516.72,503.4 c -5.9,6.79 -13.12,8.8 -19.6,8.8 -2.91,0 -5.67,-0.4 -8.09,-0.97 -1.96,-0.44 -3.71,-1 -5.14,-1.53 -0.71,-1.68 -1.29,-3.38 -1.78,-5.06 0.77,0.38 2.5,1.2 4.84,1.96 6.66,2.18 18.27,3.93 26.75,-5.82 4.38,-5.05 5.31,-11.37 2.6,-17.81 -3.26,-7.75 -12.21,-15.89 -25.72,-19.26 0,0 0,0 -0.01,0 -3.08,-0.77 -6.4,-1.29 -9.95,-1.5 l 0.2,-3.4 c 3.41,0.37 6.88,0.65 10.31,0.93 h 0.01 c 4.96,1.19 9.38,3 13.21,5.21 h 0.01 c 7.8,4.47 13.15,10.57 15.63,16.47 3.28,7.8 2.09,15.81 -3.27,21.98 z"
   id="path43"
   style="fill:#2e2e2e;fill-opacity:1" />
	</g>
	<g
   id="g45"
   style="fill:#2e2e2e;fill-opacity:1">
		<linearGradient
   id="SVGID_14_"
   gradientUnits="userSpaceOnUse"
   x1="1352.0988"
   y1="304.00049"
   x2="1670.9662"
   y2="622.86792">
			<stop
   offset="0"
   style="stop-color:#00FBF0"
   id="stop44" />
			<stop
   offset="1"
   style="stop-color:#006CF3"
   id="stop45" />
		</linearGradient>
		<path
   class="st14"
   d="m 1578.59,499.36 c -0.17,9.16 -4.18,18.05 -10.51,24.39 -0.19,0.2 -0.39,0.39 -0.59,0.58 -0.76,0.73 -1.58,1.43 -2.43,2.09 -1.76,1.38 -3.69,2.59 -5.78,3.56 -1.21,0.58 -2.46,1.07 -3.75,1.47 -2.2,0.67 -4.52,1.08 -6.93,1.16 -0.26,0.01 -0.53,0.01 -0.79,0.01 -1.05,0 -2.12,-0.06 -3.2,-0.2 -0.84,-0.1 -1.69,-0.25 -2.54,-0.45 -1.24,-0.27 -2.5,-0.65 -3.77,-1.13 -3.6,-1.35 -7.28,-3.55 -10.96,-6.78 -0.98,-0.86 -1.97,-1.79 -2.95,-2.81 1.05,-0.77 2.08,-1.63 3.07,-2.59 0.97,1 1.94,1.91 2.92,2.75 2.83,2.41 5.65,4.16 8.41,5.32 1.3,0.55 2.59,0.98 3.86,1.28 0.73,0.18 1.46,0.32 2.18,0.41 1.36,0.2 2.69,0.26 3.99,0.2 2.17,-0.09 4.26,-0.51 6.24,-1.19 1.45,-0.49 2.83,-1.12 4.15,-1.87 1.33,-0.75 2.6,-1.63 3.78,-2.59 0.6,-0.49 1.18,-1 1.74,-1.53 0.45,-0.43 0.88,-0.87 1.3,-1.32 6,-6.47 9.41,-15.59 8.36,-24.62 v -0.01 c -0.25,-2.13 -0.74,-4.25 -1.52,-6.33 -0.87,-2.39 -2.11,-4.72 -3.75,-6.94 -0.74,-1.03 -1.58,-2.03 -2.51,-3.01 -0.93,-0.97 -1.85,-1.88 -2.77,-2.73 v -0.01 c -13.99,-12.89 -27.38,-12.09 -35.8,-9.42 -1.98,0.63 -3.68,1.36 -5.06,2.04 -1.62,-0.66 -3.32,-1.22 -5.09,-1.7 1.04,-0.65 2.76,-1.61 5.01,-2.57 8.03,-3.42 22.91,-6.79 38.72,4.67 v 0.01 c 1.92,1.38 3.86,2.99 5.79,4.84 0.7,0.68 1.4,1.38 2.1,2.11 4.89,5.13 7.63,10.97 8.64,16.9 0.34,2 0.48,4.01 0.44,6.01 z"
   id="path45"
   style="fill:#2e2e2e;fill-opacity:1" />
	</g>
	<g
   id="g47"
   style="fill:#2e2e2e;fill-opacity:1">
		<linearGradient
   id="SVGID_15_"
   gradientUnits="userSpaceOnUse"
   x1="1350.0973"
   y1="306.00201"
   x2="1668.9647"
   y2="624.86951">
			<stop
   offset="0"
   style="stop-color:#00FBF0"
   id="stop46" />
			<stop
   offset="1"
   style="stop-color:#006CF3"
   id="stop47" />
		</linearGradient>
		<path
   class="st15"
   d="m 1553.73,512.28 c -4.42,3.93 -10.43,6.08 -16.02,6.08 -1.43,0 -2.83,-0.14 -4.17,-0.43 -1.31,-0.28 -2.57,-0.71 -3.73,-1.28 l 0.58,-1.18 0.01,-0.01 c 0.39,-0.49 0.77,-0.99 1.15,-1.5 0.17,-0.23 0.33,-0.46 0.49,-0.69 1.25,0.55 2.65,0.88 4.12,1.02 4.99,0.46 10.83,-1.37 14.91,-5 3.15,-2.8 7.87,-9.08 4.12,-19.64 -4.13,-11.66 -12.28,-14.87 -18.19,-15.56 -2.36,-0.28 -4.37,-0.15 -5.61,-0.01 -0.54,-0.47 -1.09,-0.91 -1.67,-1.32 l -0.52,-2.37 c 0.05,-0.01 1.4,-0.3 3.51,-0.38 6.49,-0.27 20.23,1.33 26.25,18.3 3.31,9.33 1.4,18.06 -5.23,23.97 z"
   id="path47"
   style="fill:#2e2e2e;fill-opacity:1" />
	</g>
	<g
   id="g49"
   style="fill:#2e2e2e;fill-opacity:1">
		<linearGradient
   id="SVGID_16_"
   gradientUnits="userSpaceOnUse"
   x1="1344.3774"
   y1="311.72189"
   x2="1663.2449"
   y2="630.58942">
			<stop
   offset="0"
   style="stop-color:#00FBF0"
   id="stop48" />
			<stop
   offset="1"
   style="stop-color:#006CF3"
   id="stop49" />
		</linearGradient>
		<path
   class="st16"
   d="m 1493.85,444.28 c -0.86,1.44 -1.95,2.67 -3.26,3.69 h -0.01 c -2.21,1.74 -5.04,2.86 -8.45,3.37 -1.28,0.19 -2.57,0.28 -3.83,0.28 -11.47,0.01 -21.92,-7.59 -25.72,-19.17 -1.54,-4.68 -2.07,-9.13 -2.2,-12.53 -0.07,-1.59 -0.04,-2.95 0.01,-4.01 0.64,-0.03 1.27,-0.09 1.89,-0.17 0.73,-0.09 1.45,-0.22 2.15,-0.39 -0.06,0.95 -0.12,2.36 -0.05,4.1 v 0.01 c 0.1,3.15 0.57,7.36 2,11.74 3.61,11.01 14.2,17.82 25.16,16.18 1.56,-0.23 2.94,-0.61 4.16,-1.16 1.5,-0.65 2.75,-1.54 3.74,-2.66 1.24,0.45 2.7,0.72 4.41,0.72 z"
   id="path49"
   style="fill:#2e2e2e;fill-opacity:1" />
	</g>
	<g
   id="g51"
   style="fill:#2e2e2e;fill-opacity:1">
		<linearGradient
   id="SVGID_17_"
   gradientUnits="userSpaceOnUse"
   x1="1361.7356"
   y1="294.36371"
   x2="1680.603"
   y2="613.2312">
			<stop
   offset="0"
   style="stop-color:#00FBF0"
   id="stop50" />
			<stop
   offset="1"
   style="stop-color:#006CF3"
   id="stop51" />
		</linearGradient>
		<path
   class="st17"
   d="m 1514.26,433.64 c -0.34,1.5 -0.86,2.82 -1.43,3.95 -0.11,0.22 -0.23,0.43 -0.34,0.63 -0.49,0.88 -1.07,1.72 -1.71,2.5 -3.65,4.45 -9.56,7.27 -16.09,7.54 -0.27,0.01 -0.54,0.01 -0.81,0.01 -1.14,0 -2.23,-0.1 -3.29,-0.3 h -0.01 c -1.76,-0.32 -3.4,-0.91 -4.88,-1.75 -2.2,-1.23 -4.05,-3.01 -5.41,-5.27 -2.67,-4.41 -2.95,-10 -0.69,-13.91 2.24,-3.86 7.11,-5.86 11.85,-4.85 5.16,1.1 8.61,5.24 9.23,11.09 l -3.97,0.42 c -0.62,-5.82 -4.47,-7.25 -6.09,-7.6 -3.07,-0.65 -6.17,0.56 -7.56,2.95 -1.55,2.68 -1.29,6.63 0.65,9.84 0.88,1.46 2.63,3.59 5.73,4.67 1.24,0.45 2.7,0.72 4.41,0.72 0.22,0 0.45,-0.01 0.68,-0.02 4.99,-0.21 9.51,-2.17 12.46,-5.3 0.43,-0.43 0.81,-0.89 1.15,-1.37 0.32,-0.43 0.61,-0.87 0.87,-1.33 0.48,-0.87 0.87,-1.77 1.14,-2.72 1.34,-4.46 0.38,-9.79 -2.82,-15.59 -0.99,-1.79 -2.22,-3.31 -3.62,-4.61 -9.04,-8.31 -25.41,-7.17 -32.1,-6.28 -1.81,0.24 -2.92,0.47 -2.97,0.48 l -0.51,-2.46 v -0.01 c 0.32,-0.54 0.6,-1.1 0.87,-1.67 1,-0.17 2.58,-0.41 4.56,-0.62 9.14,-0.93 26.8,-1 35.52,10.55 0.63,0.83 1.22,1.73 1.75,2.69 4.11,7.43 4.45,13.29 3.43,17.62 z"
   id="path51"
   style="fill:#2e2e2e;fill-opacity:1" />
	</g>
	<g
   id="g53"
   style="fill:#2e2e2e;fill-opacity:1">
		<linearGradient
   id="SVGID_18_"
   gradientUnits="userSpaceOnUse"
   x1="1371.6239"
   y1="284.47531"
   x2="1690.4913"
   y2="603.34277">
			<stop
   offset="0"
   style="stop-color:#00FBF0"
   id="stop52" />
			<stop
   offset="1"
   style="stop-color:#006CF3"
   id="stop53" />
		</linearGradient>
		<path
   class="st18"
   d="m 1569.12,482.22 c -0.74,-1.03 -1.58,-2.03 -2.51,-3.01 -0.93,-0.97 -1.85,-1.88 -2.77,-2.73 v -0.01 c -0.62,-2.43 -1.36,-4.76 -2.22,-6.97 v -0.01 c -0.62,-1.6 -1.29,-3.13 -2.04,-4.61 -0.54,-1.1 -1.12,-2.17 -1.74,-3.2 -2.41,-4.08 -5.35,-7.67 -8.8,-10.75 -4.32,-3.87 -9.44,-6.95 -15.35,-9.22 -7.95,-3.05 -15.7,-3.93 -20.86,-4.12 -2,-0.07 -3.61,-0.04 -4.69,0 0.32,-0.43 0.61,-0.87 0.87,-1.33 0.48,-0.87 0.87,-1.77 1.14,-2.72 1.16,-0.01 2.55,0.02 4.11,0.1 5.39,0.29 12.9,1.3 20.72,4.28 6.45,2.46 13.67,6.52 19.88,13.23 2.78,2.99 5.35,6.5 7.57,10.63 1.04,1.93 2,3.98 2.86,6.19 v 0.01 c 0.79,2 1.5,4.11 2.12,6.36 0.68,2.47 1.26,5.09 1.71,7.88 z"
   id="path53"
   style="fill:#2e2e2e;fill-opacity:1" />
	</g>
	<g
   id="g55"
   style="fill:#2e2e2e;fill-opacity:1">
		<linearGradient
   id="SVGID_19_"
   gradientUnits="userSpaceOnUse"
   x1="1373.2609"
   y1="282.83841"
   x2="1692.1283"
   y2="601.70587">
			<stop
   offset="0"
   style="stop-color:#00FBF0"
   id="stop54" />
			<stop
   offset="1"
   style="stop-color:#006CF3"
   id="stop55" />
		</linearGradient>
		<path
   class="st19"
   d="m 1630.31,553.4 c -1.57,-0.55 -3.16,-1.07 -4.76,-1.55 -0.55,-1.58 -1.1,-3.12 -1.67,-4.65 v -0.01 c -0.98,-2.65 -1.99,-5.22 -3.01,-7.71 -0.52,-1.25 -1.04,-2.48 -1.56,-3.69 -18.04,-41.64 -41.73,-60.41 -54.02,-67.81 v -0.01 c -2.37,-1.42 -4.31,-2.43 -5.71,-3.09 -0.54,-1.1 -1.12,-2.17 -1.74,-3.2 l 0.57,-1.65 c 0.16,0.05 1.6,0.56 4.02,1.75 4.64,2.3 12.88,7.13 22.52,16.12 10.99,10.25 25.59,27.79 37.85,55.89 0.54,1.25 1.08,2.52 1.61,3.81 1.46,3.51 2.87,7.18 4.24,11.01 0.56,1.57 1.11,3.16 1.66,4.79 z"
   id="path55"
   style="fill:#2e2e2e;fill-opacity:1" />
	</g>
	<g
   id="g57"
   style="fill:#2e2e2e;fill-opacity:1">
		<linearGradient
   id="SVGID_20_"
   gradientUnits="userSpaceOnUse"
   x1="1364.202"
   y1="291.89719"
   x2="1683.0695"
   y2="610.76459">
			<stop
   offset="0"
   style="stop-color:#00FBF0"
   id="stop56" />
			<stop
   offset="1"
   style="stop-color:#006CF3"
   id="stop57" />
		</linearGradient>
		<path
   class="st20"
   d="m 1611.42,548.29 c -1.51,-0.33 -3.01,-0.64 -4.5,-0.94 -0.48,-1.49 -0.98,-2.95 -1.5,-4.37 -7.9,-21.92 -18.78,-35.73 -26.83,-43.62 -1.51,-1.5 -2.93,-2.78 -4.2,-3.86 v -0.01 c -0.25,-2.13 -0.74,-4.25 -1.52,-6.33 1.41,1 3.21,2.38 5.28,4.19 8.81,7.71 22.52,23.23 31.84,50.55 0.49,1.43 0.97,2.89 1.43,4.39 z"
   id="path57"
   style="fill:#2e2e2e;fill-opacity:1" />
	</g>
	<g
   id="g59"
   style="fill:#2e2e2e;fill-opacity:1">
		<linearGradient
   id="SVGID_21_"
   gradientUnits="userSpaceOnUse"
   x1="1317.1409"
   y1="338.9584"
   x2="1636.0083"
   y2="657.82581">
			<stop
   offset="0"
   style="stop-color:#00FBF0"
   id="stop58" />
			<stop
   offset="1"
   style="stop-color:#006CF3"
   id="stop59" />
		</linearGradient>
		<path
   class="st21"
   d="m 1542.65,528.01 c -0.11,1.11 -0.3,2.45 -0.58,3.96 -0.83,4.5 -2.54,10.52 -6.04,16.44 0,0 0,0 0,0.01 -1.23,2.08 -2.69,4.14 -4.41,6.13 -4.89,5.67 -11.93,10.66 -22.03,13.3 l -1.02,-3.87 c 12.09,-3.16 19.36,-9.87 23.73,-16.87 1.74,-2.79 3.02,-5.64 3.96,-8.31 1.04,-2.94 1.66,-5.69 2.04,-7.96 0.27,-1.66 0.42,-3.06 0.49,-4.11 1.3,0.55 2.59,0.98 3.86,1.28 z"
   id="path59"
   style="fill:#2e2e2e;fill-opacity:1" />
	</g>
	<g
   id="g61"
   style="fill:#2e2e2e;fill-opacity:1">
		<linearGradient
   id="SVGID_22_"
   gradientUnits="userSpaceOnUse"
   x1="1323.9008"
   y1="332.19861"
   x2="1642.7682"
   y2="651.06598">
			<stop
   offset="0"
   style="stop-color:#00FBF0"
   id="stop60" />
			<stop
   offset="1"
   style="stop-color:#006CF3"
   id="stop61" />
		</linearGradient>
		<path
   class="st22"
   d="m 1612.22,605.9 c -2.55,4.92 -7.2,7.81 -12.77,7.95 h -0.41 c -0.65,0 -1.31,-0.04 -1.96,-0.11 -1.05,-0.12 -2.08,-0.32 -3.12,-0.62 h -0.01 c -0.93,-0.26 -1.85,-0.59 -2.76,-0.99 v -0.01 h -0.01 v -0.01 c -2.68,-1.15 -5.2,-2.89 -7.37,-5.07 -1.48,-1.48 -2.8,-3.17 -3.88,-5.03 l 3.46,-2.01 c 0.46,0.79 0.97,1.55 1.52,2.26 0.71,0.92 1.47,1.76 2.3,2.53 0,0.01 0.01,0.01 0.01,0.02 3.47,3.24 7.88,5.16 12.14,5.04 4.12,-0.1 7.42,-2.16 9.31,-5.79 2,-3.86 2.76,-7.6 2.24,-11.1 -0.26,-1.81 -1.38,-3.31 -3.05,-4.11 -1.72,-0.82 -3.71,-0.73 -5.34,0.23 -10.85,6.43 -32.09,15.17 -52.43,1.48 -1.02,-0.69 -1.99,-1.39 -2.9,-2.12 -1.42,-1.11 -2.72,-2.26 -3.91,-3.46 -2.51,-2.5 -4.52,-5.14 -6.11,-7.84 -0.73,-1.24 -1.37,-2.48 -1.93,-3.73 -2.92,-6.5 -3.73,-13.13 -3.62,-18.86 0.06,-2.72 0.32,-5.23 0.68,-7.44 1.74,-2.79 3.02,-5.64 3.96,-8.31 l 2,0.79 c -0.16,0.41 -1.46,3.82 -2.23,8.82 0,0 0,0 0,0.01 -0.34,2.16 -0.57,4.62 -0.57,7.27 0,7.42 1.83,16.29 8.45,24.11 1.07,1.25 2.24,2.48 3.56,3.66 1.45,1.31 3.06,2.57 4.85,3.78 18.53,12.46 38.13,4.35 48.16,-1.6 2.78,-1.65 6.18,-1.79 9.1,-0.4 2.86,1.36 4.84,4.03 5.29,7.14 0.64,4.35 -0.26,8.9 -2.65,13.52 z"
   id="path61"
   style="fill:#2e2e2e;fill-opacity:1" />
	</g>
	<g
   id="g63"
   style="fill:#2e2e2e;fill-opacity:1">
		<linearGradient
   id="SVGID_23_"
   gradientUnits="userSpaceOnUse"
   x1="1335.7675"
   y1="320.33179"
   x2="1654.6349"
   y2="639.19928">
			<stop
   offset="0"
   style="stop-color:#00FBF0"
   id="stop62" />
			<stop
   offset="1"
   style="stop-color:#006CF3"
   id="stop63" />
		</linearGradient>
		<path
   class="st23"
   d="m 1631.82,608.97 c -2.49,4.25 -5.39,7.31 -8.33,9.52 -1.21,0.91 -2.42,1.67 -3.61,2.31 -4.03,2.15 -7.85,2.92 -10.52,3.18 -0.87,0.08 -1.75,0.12 -2.62,0.12 -1.41,0 -2.79,-0.11 -4.14,-0.31 h -0.01 c -1.98,-0.3 -3.87,-0.81 -5.58,-1.5 -2.53,-1.01 -4.69,-2.43 -6.2,-4.16 -3.53,-4.02 -5.72,-8.15 -7,-11.09 -1.02,-2.37 -1.44,-3.97 -1.48,-4.11 l 2.58,-0.67 c 0.71,0.92 1.47,1.76 2.3,2.53 0,0.01 0.01,0.01 0.01,0.02 0.78,1.89 2.05,4.51 3.96,7.3 v 0.01 c 0.01,0 0.01,0.01 0.01,0.01 0.61,0.87 1.27,1.75 2,2.63 0.21,0.24 0.42,0.49 0.63,0.73 1.16,1.33 3.17,2.62 5.79,3.5 h 0.01 c 2.61,0.88 5.82,1.34 9.36,1.01 2.07,-0.2 4.94,-0.76 8.02,-2.24 1.14,-0.54 2.32,-1.22 3.49,-2.04 2.77,-1.95 5.53,-4.75 7.89,-8.77 5.54,-9.45 5.3,-21.91 -0.6,-31.02 -1.39,-2.14 -3.02,-3.94 -4.83,-5.35 -0.95,-0.75 -1.96,-1.4 -3.01,-1.93 -3.01,-1.53 -6.37,-2.15 -9.87,-1.76 -1.45,0.16 -2.84,0.33 -4.18,0.5 -1.41,0.18 -2.76,0.36 -4.1,0.55 -0.43,0.05 -0.87,0.11 -1.3,0.17 -13.96,1.93 -24.04,3.32 -39.09,-4.86 -14.37,-7.81 -16.93,-21.53 -16.79,-30.83 0.02,-1.45 0.1,-2.8 0.22,-4 1.36,0.2 2.69,0.26 3.99,0.2 -0.12,1.18 -0.21,2.53 -0.22,3.99 -0.1,8.29 2.2,20.33 14.71,27.13 13.66,7.42 22.64,6.34 35.96,4.5 0.23,-0.03 0.45,-0.06 0.68,-0.09 1.3,-0.18 2.6,-0.36 3.96,-0.54 h 0.01 c 1.81,-0.24 3.7,-0.48 5.7,-0.7 5.11,-0.57 9.96,0.61 14.12,3.31 1.44,0.92 2.8,2.04 4.05,3.33 1.22,1.24 2.34,2.65 3.35,4.21 6.7,10.34 6.98,24.49 0.68,35.21 z"
   id="path63"
   style="fill:#2e2e2e;fill-opacity:1" />
	</g>
	<g
   id="g65"
   style="fill:#2e2e2e;fill-opacity:1">
		<linearGradient
   id="SVGID_24_"
   gradientUnits="userSpaceOnUse"
   x1="1343.2626"
   y1="312.8367"
   x2="1662.13"
   y2="631.7041">
			<stop
   offset="0"
   style="stop-color:#00FBF0"
   id="stop64" />
			<stop
   offset="1"
   style="stop-color:#006CF3"
   id="stop65" />
		</linearGradient>
		<path
   class="st24"
   d="m 1605.89,567.39 c -1.41,0.18 -2.76,0.36 -4.1,0.55 -0.6,-1.35 -1.43,-2.55 -2.52,-3.7 -3.4,-3.6 -9.25,-6.54 -18.06,-10.98 -2.9,-1.46 -6.18,-3.11 -9.74,-4.97 -8.51,-4.46 -13.78,-9.8 -15.67,-15.88 -0.1,-0.33 -0.19,-0.65 -0.27,-0.96 -0.36,-1.46 -0.49,-2.82 -0.47,-4.02 1.45,-0.49 2.83,-1.12 4.15,-1.87 -0.2,1.13 -0.29,2.64 0.07,4.42 0.85,4.1 4.14,9.57 14.05,14.76 3.53,1.85 6.79,3.5 9.68,4.95 10.2,5.14 17.19,8.66 20.9,13.92 h 0.01 c 0.82,1.16 1.48,2.41 1.97,3.78 z"
   id="path65"
   style="fill:#2e2e2e;fill-opacity:1" />
	</g>
	<g
   id="g69"
   style="fill:#2e2e2e;fill-opacity:1">
		<linearGradient
   id="SVGID_25_"
   gradientUnits="userSpaceOnUse"
   x1="1319.3209"
   y1="336.77841"
   x2="1638.1884"
   y2="655.64581">
			<stop
   offset="0"
   style="stop-color:#00FBF0"
   id="stop66" />
			<stop
   offset="1"
   style="stop-color:#006CF3"
   id="stop67" />
		</linearGradient>
		<path
   class="st25"
   d="m 1597.08,613.74 c -1.05,-0.12 -2.08,-0.32 -3.12,-0.62 l 2.54,-0.88 c 0.05,0.14 0.24,0.68 0.58,1.5 z"
   id="path67"
   style="fill:#2e2e2e;fill-opacity:1" />
		<linearGradient
   id="SVGID_26_"
   gradientUnits="userSpaceOnUse"
   x1="1344.1696"
   y1="311.92969"
   x2="1663.037"
   y2="630.79712">
			<stop
   offset="0"
   style="stop-color:#00FBF0"
   id="stop68" />
			<stop
   offset="1"
   style="stop-color:#006CF3"
   id="stop69" />
		</linearGradient>
		<path
   class="st26"
   d="m 1660.71,627.67 c -3.8,5.46 -8.75,9.64 -14.49,12.34 -1.23,0.59 -2.5,1.1 -3.81,1.54 -3.12,1.06 -6.43,1.71 -9.88,1.94 -0.34,0.02 -0.67,0.04 -1,0.05 -0.48,0.02 -0.95,0.03 -1.42,0.03 -1.69,0 -3.32,-0.12 -4.88,-0.34 h -0.01 c -14.4,-2.07 -23.43,-12.95 -28.21,-20.94 -1.95,-3.25 -3.2,-6.02 -3.82,-7.53 0.21,0.24 0.42,0.49 0.63,0.73 1.16,1.33 3.17,2.62 5.79,3.5 h 0.01 c 0.81,1.49 1.8,3.12 2.97,4.8 h 0.01 c 3.88,5.55 9.77,11.58 18.06,14.3 1.92,0.63 3.98,1.08 6.16,1.31 1.06,0.11 2.14,0.17 3.26,0.17 0.72,0 1.44,-0.02 2.19,-0.07 3.33,-0.22 6.48,-0.86 9.42,-1.9 1.32,-0.47 2.59,-1.02 3.82,-1.65 4.68,-2.39 8.7,-5.94 11.92,-10.56 6.63,-9.55 8.97,-22.63 6.64,-36.01 -0.16,-0.9 -0.34,-1.8 -0.54,-2.7 -0.15,-0.68 -0.31,-1.37 -0.49,-2.05 0,-0.01 0,-0.01 0,-0.02 -0.18,-0.68 -0.36,-1.36 -0.57,-2.04 -0.02,-0.08 -0.04,-0.17 -0.07,-0.25 -3.28,-10.98 -10.65,-18.34 -19.89,-23.52 -2.53,-1.41 -5.19,-2.67 -7.95,-3.79 -1.39,-0.56 -2.81,-1.1 -4.25,-1.6 v -0.01 c -1.57,-0.55 -3.16,-1.07 -4.76,-1.55 -4.65,-1.4 -9.42,-2.55 -14.13,-3.56 -1.51,-0.33 -3.01,-0.64 -4.5,-0.94 -2.16,-0.44 -4.3,-0.85 -6.39,-1.26 -2.07,-0.4 -4.1,-0.79 -6.06,-1.19 -16.43,-3.32 -25.14,-12.17 -29.41,-18.48 -0.86,-1.28 -1.54,-2.45 -2.07,-3.45 0.6,-0.49 1.18,-1 1.74,-1.53 0.45,-0.43 0.88,-0.87 1.3,-1.32 0.45,0.94 1.11,2.2 2.05,3.63 3.69,5.65 11.63,14.09 27.18,17.23 1.96,0.39 3.97,0.79 6.03,1.19 1.36,0.26 2.74,0.53 4.13,0.81 1.51,0.29 3.03,0.6 4.57,0.92 4.59,0.95 9.28,2.01 13.89,3.29 v 0.01 c 1.6,0.43 3.19,0.9 4.77,1.41 5.15,1.64 10.15,3.6 14.76,6.07 h 0.01 c 1.89,1.01 3.71,2.1 5.44,3.28 6.5,4.41 11.87,10.14 15.32,17.74 v 0.01 c 0.65,1.41 1.23,2.89 1.73,4.44 0.11,0.34 0.22,0.68 0.32,1.03 0.31,1.03 0.59,2.07 0.84,3.11 0.86,3.45 1.41,6.91 1.68,10.33 0.97,12.31 -1.79,24.08 -8.04,33.05 z"
   id="path69"
   style="fill:#2e2e2e;fill-opacity:1" />
	</g>
	<g
   id="g71"
   style="fill:#2e2e2e;fill-opacity:1">
		<linearGradient
   id="SVGID_27_"
   gradientUnits="userSpaceOnUse"
   x1="1345.7185"
   y1="310.3808"
   x2="1664.5859"
   y2="629.24829">
			<stop
   offset="0"
   style="stop-color:#00FBF0"
   id="stop70" />
			<stop
   offset="1"
   style="stop-color:#006CF3"
   id="stop71" />
		</linearGradient>
		<path
   class="st27"
   d="m 1650.77,608.89 c -2.78,7.57 -8.12,12.76 -15.05,14.62 -2.03,0.55 -3.96,0.82 -5.79,0.82 -3.13,0 -5.95,-0.79 -8.45,-2.37 -0.57,-0.36 -1.1,-0.75 -1.6,-1.16 -1.13,-0.92 -2.08,-1.96 -2.88,-3.04 1.14,-0.54 2.32,-1.22 3.49,-2.04 0.82,1.03 1.81,2 3,2.77 0.05,0.04 0.1,0.07 0.15,0.1 2.97,1.87 6.69,2.23 11.05,1.06 7.21,-1.94 10.69,-7.67 12.33,-12.14 3.43,-9.33 1.88,-21.55 -3.76,-29.73 -5,-7.25 -11.01,-8.56 -15.47,-8.23 -2,0.14 -3.69,0.61 -4.84,1.03 l -3.01,-1.93 -0.49,-0.92 c 0.05,-0.03 1.7,-0.88 4.29,-1.51 5.51,-1.35 15.26,-1.67 22.81,9.29 6.44,9.33 8.13,22.74 4.22,33.38 z"
   id="path71"
   style="fill:#2e2e2e;fill-opacity:1" />
	</g>
	<g
   id="g73"
   style="fill:#2e2e2e;fill-opacity:1">
		<linearGradient
   id="SVGID_28_"
   gradientUnits="userSpaceOnUse"
   x1="1294.4175"
   y1="361.68179"
   x2="1613.2849"
   y2="680.54919">
			<stop
   offset="0"
   style="stop-color:#00FBF0"
   id="stop72" />
			<stop
   offset="1"
   style="stop-color:#006CF3"
   id="stop73" />
		</linearGradient>
		<path
   class="st28"
   d="m 1615.36,688.15 c -2.11,3.58 -5.39,5.64 -9,5.64 -2.31,0 -4.23,-0.88 -5.57,-2.55 -3.65,-4.54 -1.8,-13.59 -1.58,-14.6 l 3.91,0.86 c -0.46,2.09 -1.29,8.65 0.79,11.24 0.58,0.72 1.35,1.05 2.45,1.05 2.95,0 4.74,-2.3 5.55,-3.67 2.47,-4.2 3.09,-11.79 -1.09,-19.31 -0.23,-0.42 -0.57,-0.83 -0.99,-1.22 -1.33,-1.25 -3.56,-2.39 -6.38,-3.47 h -0.01 c -4.67,-1.78 -10.96,-3.38 -17.45,-5.03 -10.61,-2.71 -22.51,-5.75 -32.99,-10.51 -1.39,-0.63 -2.76,-1.29 -4.09,-1.99 -3.36,-1.75 -6.52,-3.72 -9.38,-5.96 -1.06,-0.82 -2.08,-1.68 -3.06,-2.58 -3.46,-3.21 -6.35,-6.91 -8.43,-11.22 -13.02,-26.93 1.97,-45.95 7.2,-51.42 0.98,-1.04 1.62,-1.59 1.66,-1.62 l 1.71,2.04 0.87,1.02 c 0,0 0,0 -0.01,0 -0.18,0.17 -1.07,0.94 -2.3,2.29 -5.31,5.82 -16.94,22.33 -5.52,45.95 1.95,4.04 4.74,7.51 8.11,10.53 1.04,0.92 2.14,1.81 3.29,2.65 0.01,0 0.01,0 0.01,0 2.98,2.19 6.28,4.11 9.8,5.82 1.51,0.73 3.06,1.42 4.63,2.07 h 0.01 c 9.48,3.95 20.01,6.64 29.48,9.05 10.57,2.69 19.42,4.95 24.25,8.4 h 0.01 c 0.68,0.49 1.29,1 1.8,1.54 0.52,0.54 0.95,1.11 1.28,1.71 4.94,8.91 4.08,18.11 1.04,23.29 z"
   id="path73"
   style="fill:#2e2e2e;fill-opacity:1" />
	</g>
	<g
   id="g75"
   style="fill:#2e2e2e;fill-opacity:1">
		<linearGradient
   id="SVGID_29_"
   gradientUnits="userSpaceOnUse"
   x1="1297.4156"
   y1="358.68369"
   x2="1616.2831"
   y2="677.55109">
			<stop
   offset="0"
   style="stop-color:#00FBF0"
   id="stop74" />
			<stop
   offset="1"
   style="stop-color:#006CF3"
   id="stop75" />
		</linearGradient>
		<path
   class="st29"
   d="m 1645.62,676.94 v 0.01 c -0.11,1.22 -0.29,2.46 -0.53,3.73 -0.13,0.66 -0.27,1.31 -0.44,1.95 -1.46,5.79 -4.37,10.48 -8.05,14.18 -0.94,0.96 -1.94,1.85 -2.99,2.67 -5.14,4.1 -11.25,6.61 -16.92,7.76 -2.73,0.55 -5.41,0.82 -7.96,0.82 -7.66,0 -14.23,-2.4 -17.79,-6.68 -0.29,-0.34 -0.55,-0.7 -0.8,-1.07 -0.79,-1.18 -1.48,-2.42 -2.07,-3.69 -3.75,-8.01 -3.75,-17.58 0.28,-24.48 2.35,-4.02 6.78,-8.5 15.09,-10.02 h 0.01 c 2.29,-0.42 4.87,-0.61 7.78,-0.51 h 0.01 c 0.68,0.49 1.29,1 1.8,1.54 l -0.19,2.55 c -1.04,-0.08 -2.04,-0.11 -3.02,-0.11 -8.54,0.01 -14.73,2.94 -18.02,8.57 -4.34,7.43 -2.51,17.54 1.55,23.76 0.04,0.06 0.07,0.11 0.11,0.17 1.31,1.95 3.48,3.48 6.22,4.49 4.36,1.62 10.17,1.96 16.21,0.74 5.11,-1.03 10.61,-3.29 15.21,-6.97 1.06,-0.84 2.06,-1.74 3.02,-2.74 0,0 0,0 0,-0.01 3.39,-3.54 5.97,-8.06 7.03,-13.67 0.12,-0.62 0.22,-1.24 0.3,-1.85 v -0.01 c 0.4,-2.99 0.37,-5.84 0.01,-8.52 0,-0.01 0,-0.01 0,-0.01 -0.71,-5.33 -2.73,-10.04 -5.25,-14.06 -1.04,-1.66 -2.16,-3.19 -3.32,-4.61 -2.6,-3.18 -5.36,-5.75 -7.67,-7.64 h -0.01 c -3.01,-2.47 -5.23,-3.79 -5.31,-3.84 l 0.75,-1.3 c 1.92,0.63 3.98,1.08 6.16,1.31 1.41,1.12 3.03,2.5 4.71,4.14 7.13,6.93 15.42,18.37 14.09,33.4 z"
   id="path75"
   style="fill:#2e2e2e;fill-opacity:1" />
	</g>
	<g
   id="g77"
   style="fill:#2e2e2e;fill-opacity:1">
		<linearGradient
   id="SVGID_30_"
   gradientUnits="userSpaceOnUse"
   x1="1265.8971"
   y1="390.20221"
   x2="1584.7645"
   y2="709.06958">
			<stop
   offset="0"
   style="stop-color:#00FBF0"
   id="stop76" />
			<stop
   offset="1"
   style="stop-color:#006CF3"
   id="stop77" />
		</linearGradient>
		<path
   class="st30"
   d="m 1654.62,746.93 c -4.2,5.12 -9.94,7.87 -16.02,7.87 -1.83,0 -3.68,-0.25 -5.54,-0.76 -5.51,-1.5 -9.74,-5.03 -10.3,-8.58 -1.79,-11.45 5.35,-13.4 5.66,-13.48 l 2.6,-0.66 -0.11,2.68 c -0.04,0.8 0.18,1.68 0.65,2.64 0.25,0.5 0.7,0.56 0.94,0.54 0.17,0 0.74,-0.07 0.99,-0.7 2.57,-6.53 -0.5,-9.45 -0.63,-9.57 l -0.19,-0.19 c -7.31,-8.43 -27.9,1.54 -35.22,6.09 l -0.1,0.06 c -31.64,17.15 -52.57,7.03 -64.55,-4.48 -9.66,-9.28 -15.88,-22.08 -17.52,-36.07 -3.76,-31.9 12.76,-49.51 21.19,-56.27 1.34,-1.09 2.48,-1.89 3.29,-2.43 1.04,0.92 2.14,1.81 3.29,2.65 -0.26,0.15 -1.59,0.91 -3.52,2.36 -7.51,5.68 -23.97,21.9 -20.28,53.23 1.54,13.06 7.33,25.01 16.32,33.64 11.01,10.58 30.33,19.84 59.82,3.88 1.8,-1.11 29.28,-17.78 40.24,-5.36 0.84,0.82 4.95,5.37 1.58,13.93 -0.75,1.91 -2.5,3.15 -4.55,3.23 -2.02,0.09 -3.81,-0.99 -4.69,-2.78 -0.15,-0.31 -0.29,-0.62 -0.41,-0.93 -0.8,1.28 -1.45,3.52 -0.85,7.37 0.26,1.67 3.17,4.19 7.41,5.34 3.1,0.85 11.01,1.99 17.42,-5.79 9.52,-11.57 10.26,-23.94 1.91,-32.29 -3.05,-3.05 -6.62,-4.76 -10.07,-6.41 -3.42,-1.63 -6.9,-3.3 -9.77,-6.21 -0.9,-0.91 -1.74,-1.94 -2.5,-3.13 1.06,-0.84 2.06,-1.74 3.02,-2.74 0.73,1.25 1.56,2.3 2.47,3.2 2.37,2.34 5.31,3.75 8.5,5.27 3.76,1.8 7.64,3.65 11.18,7.19 9.93,9.93 9.3,24.36 -1.66,37.66 z"
   id="path77"
   style="fill:#2e2e2e;fill-opacity:1" />
	</g>
	<g
   id="g79"
   style="fill:#2e2e2e;fill-opacity:1">
		<linearGradient
   id="SVGID_31_"
   gradientUnits="userSpaceOnUse"
   x1="1302.1841"
   y1="353.91531"
   x2="1621.0515"
   y2="672.78271">
			<stop
   offset="0"
   style="stop-color:#00FBF0"
   id="stop78" />
			<stop
   offset="1"
   style="stop-color:#006CF3"
   id="stop79" />
		</linearGradient>
		<path
   class="st31"
   d="m 1591.93,638.36 -0.93,3.89 c -19.12,-4.56 -32.78,-13.37 -40.59,-26.2 -7.09,-11.64 -7.66,-23.77 -7.13,-31.07 0.16,-2.23 0.42,-4 0.63,-5.18 1.07,1.25 2.24,2.48 3.56,3.66 -0.15,1.39 -0.27,3.08 -0.28,4.98 -0.08,6.82 1.09,16.45 6.66,25.57 7.24,11.86 20.05,20.06 38.08,24.35 z"
   id="path79"
   style="fill:#2e2e2e;fill-opacity:1" />
	</g>
	<g
   id="g81"
   style="fill:#2e2e2e;fill-opacity:1">
		<linearGradient
   id="SVGID_32_"
   gradientUnits="userSpaceOnUse"
   x1="1265.9506"
   y1="390.14871"
   x2="1584.818"
   y2="709.01617">
			<stop
   offset="0"
   style="stop-color:#00FBF0"
   id="stop80" />
			<stop
   offset="1"
   style="stop-color:#006CF3"
   id="stop81" />
		</linearGradient>
		<path
   class="st32"
   d="m 1599.69,702.58 -0.81,1.75 c -2.84,-1.3 -5.47,-2.27 -7.94,-2.95 -10.98,-3.05 -18.67,-0.61 -26.16,1.76 -3.56,1.13 -6.92,2.2 -10.52,2.64 -0.83,0.1 -1.66,0.15 -2.47,0.15 -4.76,0 -9.11,-1.75 -12.69,-5.13 -2.49,-2.35 -4.41,-5.42 -5.57,-8.88 -8.54,-25.64 5.72,-40.55 15.38,-47.33 1.45,-1.01 2.8,-1.85 3.95,-2.5 1.51,0.73 3.06,1.42 4.63,2.07 -0.88,0.4 -2.5,1.19 -4.49,2.42 -8.61,5.33 -24.07,18.85 -15.67,44.07 0.94,2.84 2.51,5.34 4.52,7.24 3.34,3.16 7.36,4.48 11.92,3.92 3.23,-0.4 6.42,-1.41 9.8,-2.48 6.87,-2.18 14.41,-4.57 24.5,-2.71 1.69,0.3 3.45,0.73 5.29,1.3 0.04,0.06 0.07,0.11 0.11,0.17 1.31,1.95 3.48,3.48 6.22,4.49 z"
   id="path81"
   style="fill:#2e2e2e;fill-opacity:1" />
	</g>
	<g
   id="g83"
   style="fill:#2e2e2e;fill-opacity:1">
		<linearGradient
   id="SVGID_33_"
   gradientUnits="userSpaceOnUse"
   x1="1332.676"
   y1="323.4436"
   x2="1651.5435"
   y2="642.31097">
			<stop
   offset="0"
   style="stop-color:#00FBF0"
   id="stop82" />
			<stop
   offset="1"
   style="stop-color:#006CF3"
   id="stop83" />
		</linearGradient>
		<path
   class="st33"
   d="m 1688.98,665.5 c -0.37,1.43 -0.94,2.79 -1.74,4.05 -0.39,0.61 -0.86,1.23 -1.43,1.82 -2.07,2.19 -5.43,4.03 -10.84,4.03 -1.97,0 -4.2,-0.25 -6.74,-0.8 -17.24,-3.78 -23.58,-22.42 -25.82,-33.05 -0.32,-1.5 -0.55,-2.84 -0.72,-3.95 1.32,-0.47 2.59,-1.02 3.82,-1.65 0.14,1.05 0.37,2.44 0.71,4.06 1.97,9.62 7.63,27.34 22.86,30.68 5.08,1.11 11.76,1.44 14.79,-3.29 0.48,-0.75 0.84,-1.56 1.09,-2.43 1.17,-3.86 0.34,-8.65 -1.23,-12.07 1.44,1.5 3.94,6.55 5.25,12.6 z"
   id="path83"
   style="fill:#2e2e2e;fill-opacity:1" />
	</g>
	<g
   id="g87"
   style="fill:#2e2e2e;fill-opacity:1">
		<linearGradient
   id="SVGID_34_"
   gradientUnits="userSpaceOnUse"
   x1="1319.3534"
   y1="336.74579"
   x2="1638.2208"
   y2="655.61328">
			<stop
   offset="0"
   style="stop-color:#00FBF0"
   id="stop84" />
			<stop
   offset="1"
   style="stop-color:#006CF3"
   id="stop85" />
		</linearGradient>
		<path
   class="st34"
   d="m 1634.96,650.47 c 0.02,0.09 0.41,2.03 1.26,5.01 -1.04,-1.66 -2.16,-3.19 -3.32,-4.61 z"
   id="path85"
   style="fill:#2e2e2e;fill-opacity:1" />
		<linearGradient
   id="SVGID_35_"
   gradientUnits="userSpaceOnUse"
   x1="1326.1495"
   y1="329.9498"
   x2="1645.017"
   y2="648.8172">
			<stop
   offset="0"
   style="stop-color:#00FBF0"
   id="stop86" />
			<stop
   offset="1"
   style="stop-color:#006CF3"
   id="stop87" />
		</linearGradient>
		<path
   class="st35"
   d="m 1687.27,683.82 c -3.17,5.56 -8.66,9.12 -16.69,10.37 -1.45,0.23 -2.85,0.34 -4.2,0.34 -9.34,0 -16.44,-5.15 -21.73,-11.9 -1.15,-1.45 -2.21,-2.98 -3.19,-4.55 v -0.01 c 0.4,-2.99 0.37,-5.84 0.01,-8.52 1.2,2.49 2.57,5.01 4.15,7.39 v 0.01 c 4.92,7.45 11.75,13.56 20.94,13.56 1.1,0 2.23,-0.09 3.4,-0.27 6.73,-1.05 11.37,-3.85 13.79,-8.32 1.74,-3.2 2.22,-6.94 2.06,-10.55 -0.09,-2.24 -0.42,-4.43 -0.85,-6.4 1.17,-3.86 0.34,-8.65 -1.23,-12.07 1.44,1.5 3.94,6.55 5.25,12.6 1.28,5.94 1.42,12.85 -1.71,18.32 z"
   id="path87"
   style="fill:#2e2e2e;fill-opacity:1" />
	</g>
	<g
   id="g89"
   style="fill:#2e2e2e;fill-opacity:1">
		<linearGradient
   id="SVGID_36_"
   gradientUnits="userSpaceOnUse"
   x1="1300.0433"
   y1="356.05591"
   x2="1618.9108"
   y2="674.9234">
			<stop
   offset="0"
   style="stop-color:#00FBF0"
   id="stop88" />
			<stop
   offset="1"
   style="stop-color:#006CF3"
   id="stop89" />
		</linearGradient>
		<path
   class="st36"
   d="m 1434.1,472.48 c 0,0 -14.26,-10.79 -25.23,-9.45 -10.98,1.34 -20.36,2.55 -21.38,-1.6 -1.02,-4.15 4.6,-8.17 14.36,-6.83 9.76,1.34 25.95,7.73 32.25,17.88 z"
   id="path89"
   style="fill:#2e2e2e;fill-opacity:1" />
	</g>
	<g
   id="g91"
   style="fill:#2e2e2e;fill-opacity:1">
		<linearGradient
   id="SVGID_37_"
   gradientUnits="userSpaceOnUse"
   x1="1236.2985"
   y1="419.8009"
   x2="1555.1659"
   y2="738.66827">
			<stop
   offset="0"
   style="stop-color:#00FBF0"
   id="stop90" />
			<stop
   offset="1"
   style="stop-color:#006CF3"
   id="stop91" />
		</linearGradient>
		<path
   class="st37"
   d="m 1387.13,564.55 c 0,0 -0.7,0.3 -1.68,0.8 -0.36,0.19 -0.77,0.4 -1.19,0.64 -0.84,0.47 -1.75,1.04 -2.58,1.67 -0.02,0 -0.03,0.01 -0.05,0.03 -0.52,0.36 -0.95,0.69 -1.21,0.92 -0.22,0.24 -0.44,0.48 -0.67,0.71 l -1.35,-2.93 -0.91,-1.98 h -0.01 l -0.57,-1.24 -3.14,-6.82 c 0.03,0.04 0.15,0.17 0.37,0.38 0.96,0.96 3.89,3.53 9.95,6.44 0.32,0.16 0.65,0.31 0.99,0.47 0.65,0.3 1.33,0.61 2.05,0.91 z"
   id="path91"
   style="fill:#2e2e2e;fill-opacity:1" />
	</g>
	<g
   id="g93"
   style="fill:#2e2e2e;fill-opacity:1">
		<linearGradient
   id="SVGID_38_"
   gradientUnits="userSpaceOnUse"
   x1="1354.1794"
   y1="301.91989"
   x2="1673.0469"
   y2="620.78729">
			<stop
   offset="0"
   style="stop-color:#00FBF0"
   id="stop92" />
			<stop
   offset="1"
   style="stop-color:#006CF3"
   id="stop93" />
		</linearGradient>
		<path
   class="st38"
   d="m 1447.12,377.71 c -2.22,0 -4.35,0.42 -6.3,1.2 -1.2,0.47 -2.32,1.07 -3.36,1.79 -0.73,0.5 -1.42,1.05 -2.06,1.66 -0.44,0.4 -0.86,0.84 -1.25,1.3 l 3.95,1.64 c 1.17,-1.11 2.55,-2.01 4.08,-2.63 1.52,-0.62 3.19,-0.96 4.94,-0.96 7.25,0 13.15,5.89 13.15,13.15 0,7.25 -5.9,13.14 -13.15,13.14 -4.82,0 -9.04,-2.6 -11.32,-6.47 -0.65,-1.09 -1.15,-2.29 -1.45,-3.56 l -4.34,-2.03 c 0.1,1.71 0.46,3.36 1.04,4.9 2.43,6.51 8.72,11.16 16.07,11.16 9.45,0 17.15,-7.69 17.15,-17.14 0,-9.46 -7.7,-17.15 -17.15,-17.15 z"
   id="path93"
   style="fill:#2e2e2e;fill-opacity:1" />
	</g>
	<g
   id="g95"
   style="fill:#2e2e2e;fill-opacity:1">
		<linearGradient
   id="SVGID_39_"
   gradientUnits="userSpaceOnUse"
   x1="1344.9449"
   y1="311.1543"
   x2="1663.8124"
   y2="630.02179">
			<stop
   offset="0"
   style="stop-color:#00FBF0"
   id="stop94" />
			<stop
   offset="1"
   style="stop-color:#006CF3"
   id="stop95" />
		</linearGradient>
		<path
   class="st39"
   d="m 1398.8,372.12 -3.91,7.35 12.82,6.01 3.79,1.78 18.51,8.68 4.34,2.03 c 0.3,1.27 0.8,2.47 1.45,3.56 l -0.59,1.26 -4.16,-1.95 -19.06,-8.94 h -0.01 l -4.4,-2.06 -3.21,-1.51 -3.68,-1.72 -11.3,-5.3 8.99,-16.92 2.83,1.18 3.69,1.54 30.29,12.65 h 0.01 l 2.26,0.94 1.48,0.62 3.24,1.35 c -1.53,0.62 -2.91,1.52 -4.08,2.63 l -3.95,-1.64 -30.91,-12.9 -3.04,-1.27 z"
   id="path95"
   style="fill:#2e2e2e;fill-opacity:1" />
	</g>
	<g
   id="g97"
   style="fill:#2e2e2e;fill-opacity:1">
		<linearGradient
   id="SVGID_40_"
   gradientUnits="userSpaceOnUse"
   x1="1361.2874"
   y1="294.81189"
   x2="1680.1548"
   y2="613.67932">
			<stop
   offset="0"
   style="stop-color:#00FBF0"
   id="stop96" />
			<stop
   offset="1"
   style="stop-color:#006CF3"
   id="stop97" />
		</linearGradient>
		<path
   class="st40"
   d="m 1426.44,319.9 -1.68,3.66 -19.86,43.55 -1.66,3.65 -3.04,-1.27 -1.4,2.63 -0.48,-0.22 2.89,-6.33 20.1,-44.08 1.67,-3.66 c 0.37,0.22 0.8,0.47 1.3,0.78 0.08,0.04 1.24,0.74 2.16,1.29 z"
   id="path97"
   style="fill:#2e2e2e;fill-opacity:1" />
	</g>
	<g
   id="g99"
   style="fill:#2e2e2e;fill-opacity:1">
		<linearGradient
   id="SVGID_41_"
   gradientUnits="userSpaceOnUse"
   x1="1388.4175"
   y1="267.68188"
   x2="1707.2849"
   y2="586.54932">
			<stop
   offset="0"
   style="stop-color:#00FBF0"
   id="stop98" />
			<stop
   offset="1"
   style="stop-color:#006CF3"
   id="stop99" />
		</linearGradient>
		<path
   class="st41"
   d="m 1699.45,538.82 c -0.59,0.4 -1.21,0.74 -1.86,1.05 -6.27,3.42 -27.8,14.56 -48.73,18.09 -2.13,0.37 -4.25,0.65 -6.35,0.84 -2.53,-1.41 -5.19,-2.67 -7.95,-3.79 2.85,0.13 5.82,0.01 8.85,-0.33 h 0.01 c 15.27,-1.66 31.98,-8.46 42.69,-13.51 -1.36,-0.23 -2.76,-0.57 -4.19,-1.04 -11.73,-3.82 -27.58,-16.71 -36.84,-41.42 -13.15,-35.06 -101.25,-97.25 -127.94,-115.48 -28.85,-19.7 -61.1,-52.65 -78.33,-71.19 l -2.9,-3.14 c -3.15,-3.43 -5.63,-6.19 -7.27,-8.03 -3.6,10.29 -5.19,14.82 -5.89,16.82 0.07,0.04 0.15,0.09 0.23,0.14 0.37,0.22 0.8,0.47 1.3,0.78 0.08,0.04 1.24,0.74 2.16,1.29 0.53,0.32 0.97,0.59 1.09,0.67 6.63,4.56 11.62,10.61 16.43,16.47 2.57,3.12 5.23,6.35 8.09,9.28 7.99,8.2 17.06,15.56 25.84,22.69 l 3.45,2.81 c 13.94,11.36 30.52,24.44 47.8,35.25 36.33,22.72 62.92,44.72 83.67,69.23 6.44,7.62 13.11,15.49 16.9,25.02 3.35,8.41 4.45,21.4 0.07,29.95 -1.37,2.67 -3.16,4.79 -5.37,6.33 -1.08,0.77 -2.26,1.39 -3.54,1.88 -0.52,-1.25 -1.04,-2.48 -1.56,-3.69 1.29,-0.48 2.46,-1.15 3.49,-2 1.38,-1.13 2.52,-2.57 3.42,-4.34 3.8,-7.41 2.72,-19.27 -0.22,-26.65 -3.56,-8.93 -10.01,-16.54 -16.24,-23.91 -20.48,-24.19 -46.77,-45.94 -82.74,-68.43 -17.47,-10.93 -34.17,-24.1 -48.21,-35.54 l -3.44,-2.8 c -8.87,-7.2 -18.03,-14.65 -26.18,-23 -2.98,-3.06 -5.69,-6.35 -8.31,-9.54 -4.86,-5.9 -9.45,-11.47 -15.61,-15.71 -0.07,-0.04 -0.25,-0.15 -0.51,-0.31 -0.78,-0.48 -2.24,-1.36 -3.45,-2.07 -0.43,-0.26 -0.83,-0.49 -1.15,-0.68 l -3.19,1.26 1.45,-4.13 c 0.05,-0.13 7.58,-21.62 7.58,-21.62 l 1.14,-3.25 2.26,2.6 c 0.14,0.16 4.12,4.74 10.7,11.86 0.97,1.05 1.99,2.15 3.06,3.31 17.41,18.64 48.45,50.12 76.23,69.09 34.53,23.57 116.24,82.2 129.43,117.37 8.78,23.41 23.99,35.65 34.34,39.03 4.8,1.56 9.06,1.57 12.46,0.05 1.08,-0.59 1.69,-0.93 1.73,-0.96 z"
   id="path99"
   style="fill:#2e2e2e;fill-opacity:1" />
	</g>
	<g
   id="g101"
   style="fill:#2e2e2e;fill-opacity:1">
		<linearGradient
   id="SVGID_42_"
   gradientUnits="userSpaceOnUse"
   x1="1445.584"
   y1="210.5153"
   x2="1764.4514"
   y2="529.38269">
			<stop
   offset="0"
   style="stop-color:#00FBF0"
   id="stop100" />
			<stop
   offset="1"
   style="stop-color:#006CF3"
   id="stop101" />
		</linearGradient>
		<path
   class="st42"
   d="m 1734.7,465.43 c -5.43,27.85 -16.23,54.96 -31.24,78.41 -11.23,17.55 -23.89,31.58 -36.39,40.45 -1.18,0.84 -2.36,1.64 -3.54,2.39 -0.15,-0.68 -0.31,-1.37 -0.49,-2.05 0,-0.01 0,-0.01 0,-0.02 -0.18,-0.68 -0.36,-1.36 -0.57,-2.04 1.14,-0.75 2.29,-1.55 3.44,-2.42 25.41,-18.87 54.49,-62.32 64.87,-115.48 8.11,-41.57 7.59,-103.25 -40.94,-160.95 -48.41,-57.58 -107.12,-82.13 -147.85,-92.59 -35.92,-9.22 -64.55,-9.42 -74.2,-9.15 3.49,5.3 10.83,16.91 17.14,30.02 0.63,1.32 1.25,2.64 1.85,3.98 5.72,12.62 10.07,26.15 8.97,36.53 -2.3,21.48 -37.74,34 -52.59,38.33 -1.78,0.51 -3.26,0.92 -4.35,1.2 l -2.9,-3.14 -0.06,-0.25 c 0.09,-0.02 1.67,-0.4 4.25,-1.12 12.69,-3.58 49.56,-15.63 51.67,-35.44 1.06,-9.97 -3.53,-23.48 -9.38,-36.02 -0.62,-1.32 -1.24,-2.63 -1.88,-3.92 -8.2,-16.63 -17.83,-30.63 -18.01,-30.88 l -1.99,-2.87 3.48,-0.26 c 0.33,-0.03 34.04,-2.41 78.84,9.08 41.34,10.59 100.93,35.48 150.07,93.92 49.55,58.92 50.08,121.87 41.8,164.29 z"
   id="path101"
   style="fill:#2e2e2e;fill-opacity:1" />
	</g>
	<g
   id="g103"
   style="fill:#2e2e2e;fill-opacity:1">
		<linearGradient
   id="SVGID_43_"
   gradientUnits="userSpaceOnUse"
   x1="1459.8203"
   y1="196.27901"
   x2="1778.6877"
   y2="515.14648">
			<stop
   offset="0"
   style="stop-color:#00FBF0"
   id="stop102" />
			<stop
   offset="1"
   style="stop-color:#006CF3"
   id="stop103" />
		</linearGradient>
		<path
   class="st43"
   d="m 1699.63,504.33 -3.8,-1.26 c 16.11,-48.59 17.33,-93.28 3.65,-132.84 l 3.78,-1.31 c 13.98,40.41 12.76,85.97 -3.63,135.41 z"
   id="path103"
   style="fill:#2e2e2e;fill-opacity:1" />
	</g>
	<g
   id="g105"
   style="fill:#2e2e2e;fill-opacity:1">
		<linearGradient
   id="SVGID_44_"
   gradientUnits="userSpaceOnUse"
   x1="1479.6018"
   y1="176.4975"
   x2="1798.4692"
   y2="495.3649">
			<stop
   offset="0"
   style="stop-color:#00FBF0"
   id="stop104" />
			<stop
   offset="1"
   style="stop-color:#006CF3"
   id="stop105" />
		</linearGradient>
		<path
   class="st44"
   d="m 1686.57,334.16 -3.39,2.12 c -35.38,-56.66 -88.6,-80.85 -127.01,-91.18 -30.98,-8.33 -57.59,-9.22 -69.39,-9.12 -1.83,0.01 -3.31,0.05 -4.39,0.09 -0.62,-1.32 -1.24,-2.63 -1.88,-3.92 0.73,-0.04 2.24,-0.11 4.42,-0.15 10.99,-0.2 39.13,0.35 72.14,9.2 39.15,10.5 93.4,35.15 129.5,92.96 z"
   id="path105"
   style="fill:#2e2e2e;fill-opacity:1" />
	</g>
	<linearGradient
   id="SVGID_45_"
   gradientUnits="userSpaceOnUse"
   x1="1417.5406"
   y1="238.55859"
   x2="1736.4082"
   y2="557.42603">
		<stop
   offset="0"
   style="stop-color:#00FBF0"
   id="stop106" />
		<stop
   offset="1"
   style="stop-color:#006CF3"
   id="stop107" />
	</linearGradient>
	<circle
   class="st45"
   cx="1519.03"
   cy="340.04999"
   r="6.6399999"
   id="circle107"
   style="fill:#2e2e2e;fill-opacity:1" />
	<linearGradient
   id="SVGID_46_"
   gradientUnits="userSpaceOnUse"
   x1="1393.4556"
   y1="262.64371"
   x2="1712.323"
   y2="581.51111">
		<stop
   offset="0"
   style="stop-color:#00FBF0"
   id="stop108" />
		<stop
   offset="1"
   style="stop-color:#006CF3"
   id="stop109" />
	</linearGradient>
	<circle
   class="st46"
   cx="1489.59"
   cy="358.76999"
   r="6.8099999"
   id="circle109"
   style="fill:#2e2e2e;fill-opacity:1" />
	<linearGradient
   id="SVGID_47_"
   gradientUnits="userSpaceOnUse"
   x1="1487.2003"
   y1="168.899"
   x2="1806.0677"
   y2="487.76639">
		<stop
   offset="0"
   style="stop-color:#00FBF0"
   id="stop110" />
		<stop
   offset="1"
   style="stop-color:#006CF3"
   id="stop111" />
	</linearGradient>
	<circle
   class="st47"
   cx="1641.5"
   cy="323.20001"
   r="8.8500004"
   id="circle111"
   style="fill:#2e2e2e;fill-opacity:1" />
	<linearGradient
   id="SVGID_48_"
   gradientUnits="userSpaceOnUse"
   x1="1460.3066"
   y1="195.7926"
   x2="1779.1741"
   y2="514.6601">
		<stop
   offset="0"
   style="stop-color:#00FBF0"
   id="stop112" />
		<stop
   offset="1"
   style="stop-color:#006CF3"
   id="stop113" />
	</linearGradient>
	<circle
   class="st48"
   cx="1596.39"
   cy="331.88"
   r="5.79"
   id="circle113"
   style="fill:#2e2e2e;fill-opacity:1" />
	<linearGradient
   id="SVGID_49_"
   gradientUnits="userSpaceOnUse"
   x1="1402.0939"
   y1="254.0054"
   x2="1720.9613"
   y2="572.8728">
		<stop
   offset="0"
   style="stop-color:#00FBF0"
   id="stop114" />
		<stop
   offset="1"
   style="stop-color:#006CF3"
   id="stop115" />
	</linearGradient>
	<circle
   class="st49"
   cx="1553.33"
   cy="405.23999"
   r="9.5299997"
   id="circle115"
   style="fill:#2e2e2e;fill-opacity:1" />
	<linearGradient
   id="SVGID_50_"
   gradientUnits="userSpaceOnUse"
   x1="1471.328"
   y1="184.7713"
   x2="1790.1954"
   y2="503.63879">
		<stop
   offset="0"
   style="stop-color:#00FBF0"
   id="stop116" />
		<stop
   offset="1"
   style="stop-color:#006CF3"
   id="stop117" />
	</linearGradient>
	<circle
   class="st50"
   cx="1659.2"
   cy="372.64999"
   r="10.98"
   id="circle117"
   style="fill:#2e2e2e;fill-opacity:1" />
	<linearGradient
   id="SVGID_51_"
   gradientUnits="userSpaceOnUse"
   x1="1448.8173"
   y1="207.282"
   x2="1767.6847"
   y2="526.14941">
		<stop
   offset="0"
   style="stop-color:#00FBF0"
   id="stop118" />
		<stop
   offset="1"
   style="stop-color:#006CF3"
   id="stop119" />
	</linearGradient>
	<circle
   class="st51"
   cx="1627.2"
   cy="385.67001"
   r="5.79"
   id="circle119"
   style="fill:#2e2e2e;fill-opacity:1" />
	<linearGradient
   id="SVGID_52_"
   gradientUnits="userSpaceOnUse"
   x1="1485.2428"
   y1="170.85651"
   x2="1804.1102"
   y2="489.72391">
		<stop
   offset="0"
   style="stop-color:#00FBF0"
   id="stop120" />
		<stop
   offset="1"
   style="stop-color:#006CF3"
   id="stop121" />
	</linearGradient>
	<circle
   class="st52"
   cx="1700.5601"
   cy="386.17999"
   r="8.6800003"
   id="circle121"
   style="fill:#2e2e2e;fill-opacity:1" />
	<linearGradient
   id="SVGID_53_"
   gradientUnits="userSpaceOnUse"
   x1="1458.8599"
   y1="197.2394"
   x2="1777.7273"
   y2="516.10687">
		<stop
   offset="0"
   style="stop-color:#00FBF0"
   id="stop122" />
		<stop
   offset="1"
   style="stop-color:#006CF3"
   id="stop123" />
	</linearGradient>
	<circle
   class="st53"
   cx="1709.9301"
   cy="448.31"
   r="8"
   id="circle123"
   style="fill:#2e2e2e;fill-opacity:1" />
	<linearGradient
   id="SVGID_54_"
   gradientUnits="userSpaceOnUse"
   x1="1409.0726"
   y1="247.0267"
   x2="1727.9401"
   y2="565.8941">
		<stop
   offset="0"
   style="stop-color:#00FBF0"
   id="stop124" />
		<stop
   offset="1"
   style="stop-color:#006CF3"
   id="stop125" />
	</linearGradient>
	<circle
   class="st54"
   cx="1618.86"
   cy="456.82001"
   r="7.1500001"
   id="circle125"
   style="fill:#2e2e2e;fill-opacity:1" />
	<g
   id="g127"
   style="fill:#2e2e2e;fill-opacity:1">
		<linearGradient
   id="SVGID_55_"
   gradientUnits="userSpaceOnUse"
   x1="1447.606"
   y1="208.49339"
   x2="1766.4734"
   y2="527.36078">
			<stop
   offset="0"
   style="stop-color:#00FBF0"
   id="stop126" />
			<stop
   offset="1"
   style="stop-color:#006CF3"
   id="stop127" />
		</linearGradient>
		<path
   class="st55"
   d="m 1519.16,342.69 -29.28,-62.68 61.97,-29.91 z m -26.63,-61.74 26.38,56.46 29.44,-83.41 z"
   id="path127"
   style="fill:#2e2e2e;fill-opacity:1" />
	</g>
	<g
   id="g129"
   style="fill:#2e2e2e;fill-opacity:1">
		<linearGradient
   id="SVGID_56_"
   gradientUnits="userSpaceOnUse"
   x1="1441.3324"
   y1="214.767"
   x2="1760.1998"
   y2="533.6344">
			<stop
   offset="0"
   style="stop-color:#00FBF0"
   id="stop128" />
			<stop
   offset="1"
   style="stop-color:#006CF3"
   id="stop129" />
		</linearGradient>
		<path
   class="st56"
   d="m 1615.76,460.78 2.13,-4.25 3.33,-31.98 -67.41,-18.14 -1.39,2.36 -0.06,-2.23 -2.66,0.71 2.62,-2.43 -1.72,-67.1 -31.24,3.3 -29.85,18.43 -1.05,-1.7 30.24,-18.67 31.85,-3.36 -2.2,-85.79 45.62,45.36 -13.42,37.27 16.09,-1.7 20.54,13.61 26.08,-24.27 -8.72,35.77 25.83,17.11 1.84,-0.62 -0.55,1.09 42.25,11.92 -52.75,45.07 66.5,17.9 -98.39,9.34 z m 33.56,-28.67 -27.4,23.41 84.54,-8.03 z m -14.96,-4.02 -12.39,24.76 25.01,-21.37 z m -11.19,-3.01 -2.75,26.38 11.96,-23.9 z m 12.1,1.18 13.54,3.65 50.95,-43.53 -39.02,-11.01 z m -11.89,-3.2 9.92,2.67 24.94,-49.83 -31.05,10.5 z m -66.2,-17.82 64.24,17.29 3.7,-35.53 z m 60.21,-58.24 -60.44,56.24 68.48,-18.38 6.83,-28 z m -64.79,-9.49 1.6,62.38 23.41,-65.02 z m 44.12,-4.21 -39.07,66.56 58.03,-53.99 z m -16.91,1.34 -21.89,60.82 36.61,-62.37 z m 54.23,23.38 -6.37,26.12 30.3,-10.25 z m -15.14,-12.42 13.87,9.19 6.97,-28.58 z m -68.42,-90.74 2.07,80.65 25.81,-2.73 13.31,-36.98 z"
   id="path129"
   style="fill:#2e2e2e;fill-opacity:1" />
	</g>
	<g
   id="g131"
   style="fill:#2e2e2e;fill-opacity:1">
		<linearGradient
   id="SVGID_57_"
   gradientUnits="userSpaceOnUse"
   x1="1293.4828"
   y1="362.61649"
   x2="1612.3502"
   y2="681.48389">
			<stop
   offset="0"
   style="stop-color:#00FBF0"
   id="stop130" />
			<stop
   offset="1"
   style="stop-color:#006CF3"
   id="stop131" />
		</linearGradient>
		<path
   class="st57"
   d="m 1406.22,482.9 c -7.37,0 -11.91,-2.69 -12.22,-2.88 l 2.08,-3.42 c 0.43,0.26 10.8,6.26 26.08,-2.21 l 1.94,3.5 c -6.93,3.84 -13.02,5.01 -17.88,5.01 z"
   id="path131"
   style="fill:#2e2e2e;fill-opacity:1" />
	</g>
</g>
</svg>
