<?xml version="1.0" encoding="utf-8"?>
<!-- Generated by IcoMoon.io -->
<!DOCTYPE svg PUBLIC "-//W3C//DTD SVG 1.1//EN" "http://www.w3.org/Graphics/SVG/1.1/DTD/svg11.dtd">
<svg version="1.1" xmlns="http://www.w3.org/2000/svg" xmlns:xlink="http://www.w3.org/1999/xlink" width="25" height="25" viewBox="0 0 25 25">
<g>
</g>
	<path d="M5 21.25c0 1.38 1.12 2.5 2.5 2.5 1.381 0 2.5-1.12 2.5-2.5s-1.119-2.5-2.5-2.5c-1.38 0-2.5 1.12-2.5 2.5zM17.5 21.25c0 1.38 1.12 2.5 2.5 2.5 1.381 0 2.5-1.12 2.5-2.5s-1.119-2.5-2.5-2.5c-1.38 0-2.5 1.12-2.5 2.5zM9.434 15.34l13.836-3.952c0.264-0.076 0.48-0.363 0.48-0.638v-6.875h-17.625v-2.125c0-0.275-0.224-0.5-0.5-0.5h-3.875c-0.275 0-0.5 0.225-0.5 0.5v2h2.429l2.46 11.321 0.238 1.179v1.875c0 0.275 0.225 0.5 0.499 0.5h16.376c0.274 0 0.499-0.225 0.499-0.5v-1.875h-14.060c-1.436 0-1.466-0.562-0.256-0.91z" fill="#000000" />
</svg>
