<?xml version="1.0" encoding="utf-8"?>
<!-- Generated by IcoMoon.io -->
<!DOCTYPE svg PUBLIC "-//W3C//DTD SVG 1.1//EN" "http://www.w3.org/Graphics/SVG/1.1/DTD/svg11.dtd">
<svg version="1.1" xmlns="http://www.w3.org/2000/svg" xmlns:xlink="http://www.w3.org/1999/xlink" width="25" height="25" viewBox="0 0 25 25">
<g>
</g>
	<path d="M20 11.25h-15c-0.69 0-1.25 0.56-1.25 1.25s0.56 1.25 1.25 1.25h15c0.691 0 1.25-0.56 1.25-1.25s-0.559-1.25-1.25-1.25zM5 8.75h15c0.691 0 1.25-0.56 1.25-1.25s-0.559-1.25-1.25-1.25h-15c-0.69 0-1.25 0.56-1.25 1.25s0.56 1.25 1.25 1.25zM20 16.25h-15c-0.69 0-1.25 0.559-1.25 1.25s0.56 1.25 1.25 1.25h15c0.691 0 1.25-0.559 1.25-1.25s-0.559-1.25-1.25-1.25z" fill="#000000" />
</svg>
