<?xml version="1.0" encoding="utf-8"?>
<!-- Generated by IcoMoon.io -->
<!DOCTYPE svg PUBLIC "-//W3C//DTD SVG 1.1//EN" "http://www.w3.org/Graphics/SVG/1.1/DTD/svg11.dtd">
<svg version="1.1" xmlns="http://www.w3.org/2000/svg" xmlns:xlink="http://www.w3.org/1999/xlink" width="25" height="25" viewBox="0 0 25 25">
<g>
</g>
	<path d="M18.866 8.368h0.884v2.516l5.25-4.5-5.25-4.5v2.984h-0.884c-4.616 0-7.22 3.421-9.518 6.44-2.066 2.715-3.85 5.060-6.732 5.060h-2.616v3.501h2.616c4.618 0 7.22-3.423 9.519-6.441 2.065-2.716 3.849-5.060 6.731-5.060zM6.764 10.573c0.196-0.255 0.395-0.515 0.596-0.779 0.489-0.643 1.005-1.32 1.564-1.995-1.651-1.543-3.644-2.681-6.307-2.681h-2.616v3.5h2.616c1.659 0 2.954 0.779 4.148 1.955zM19.75 16.616h-0.884c-1.759 0-3.107-0.874-4.363-2.173-0.126 0.164-0.251 0.33-0.379 0.498-0.551 0.723-1.145 1.501-1.799 2.27 1.696 1.655 3.751 2.905 6.54 2.905h0.884v3l5.25-4.5-5.25-4.502v2.502z" fill="#000000" />
</svg>
