<?xml version="1.0" encoding="utf-8"?>
<!-- Generated by IcoMoon.io -->
<!DOCTYPE svg PUBLIC "-//W3C//DTD SVG 1.1//EN" "http://www.w3.org/Graphics/SVG/1.1/DTD/svg11.dtd">
<svg version="1.1" xmlns="http://www.w3.org/2000/svg" xmlns:xlink="http://www.w3.org/1999/xlink" width="25" height="25" viewBox="0 0 25 25">
<g>
</g>
	<path d="M18.75 1.25h-12.5c-1.375 0-2.5 1.125-2.5 2.5v17.5c0 1.375 1.125 2.5 2.5 2.5h12.5c1.376 0 2.5-1.125 2.5-2.5v-17.5c0-1.375-1.124-2.5-2.5-2.5zM15.995 13.151c-0.296 0.463-0.454 0.265-0.365 0 0.235-0.698 0.226-2.809-1.74-3.118v6.516c0 1.215-0.7 1.977-2.188 2.455-1.445 0.462-3.063-0.019-3.441-1.057-0.377-1.037 0.473-2.3 1.899-2.82 0.796-0.289 1.604-0.286 2.226-0.045v-9.193h1.504c0 1.579 4.226 3.961 2.105 7.261z" fill="#ffffff" />
</svg>
