<?xml version="1.0" encoding="UTF-8" standalone="no"?>
<svg
   width="24"
   height="24"
   viewBox="0 0 24 24"
   version="1.1"
   id="svg8"
   xmlns="http://www.w3.org/2000/svg"
   xmlns:svg="http://www.w3.org/2000/svg"
   xmlns:rdf="http://www.w3.org/1999/02/22-rdf-syntax-ns#"
   xmlns:cc="http://creativecommons.org/ns#"
   xmlns:dc="http://purl.org/dc/elements/1.1/">
  <defs
     id="defs2" />
  <metadata
     id="metadata5">
    <rdf:RDF>
      <cc:Work
         rdf:about="">
        <dc:format>image/svg+xml</dc:format>
        <dc:type
           rdf:resource="http://purl.org/dc/dcmitype/StillImage" />
      </cc:Work>
    </rdf:RDF>
  </metadata>
  <path
     style="fill:none;stroke:#000000;stroke-width:2;stroke-linecap:round;stroke-linejoin:round;stroke-miterlimit:4;stroke-dasharray:none;stroke-opacity:1"
     d="M 5,19.000001 10.46,13.54"
     id="path3" />
  <path
     style="fill:none;stroke:#000000;stroke-width:2;stroke-linecap:round;stroke-linejoin:round;stroke-miterlimit:4;stroke-dasharray:none;stroke-opacity:1"
     d="M 19.000008,10.001769 18.996481,9.8356315 18.9894,9.6659634 18.975265,9.499828 18.954024,9.3336926 18.929256,9.1710897 18.900951,9.0049505 18.86205,8.842351 18.823158,8.6797489 18.773653,8.520683 18.724148,8.361617 18.664066,8.2025536 18.603956,8.0505581 18.53677,7.8950258 18.462512,7.7465649 18.384719,7.5981038 18.30339,7.4531771 18.21499,7.3117847 18.123052,7.1703923 18.024043,7.0360712 17.925033,6.9017475 17.818953,6.7744946 17.709334,6.647242 17.592644,6.5235237 17.475954,6.4068739 17.352193,6.2937612 17.228433,6.1841823 17.097598,6.0781381 16.966763,5.975628 16.828857,5.8801894 16.690951,5.7847505 16.54951,5.6999147 16.400997,5.6150785 16.256018,5.5373139 16.103967,5.4666174 15.951916,5.3959223 15.79633,5.3358281 15.640744,5.2757364 15.481622,5.226248 15.3225,5.1767596 l -0.162657,-0.038882 -0.162658,-0.035349 -0.166193,-0.031816 -0.166196,-0.024718 -0.162658,-0.021216 -0.169731,-0.014161 -0.166196,-0.00706 -0.166194,-0.00355 -0.166195,0.00355 -0.166194,0.00706 -0.169731,0.014161 -0.162658,0.021216 -0.166196,0.024718 -0.166193,0.031816 -0.162659,0.035349 -0.162658,0.038881 -0.159123,0.049489 -0.159123,0.049489 -0.155586,0.060092 -0.155585,0.060094 -0.152051,0.070695 -0.15205,0.070695 -0.144975,0.077765 -0.148515,0.084838 -0.14144,0.084838 -0.137905,0.095438 -0.137905,0.095438 L 10.90244,6.0781405 10.771608,6.1841839 10.647844,6.2937625 10.524084,6.4068762 10.407393,6.523525 10.290701,6.6472416 10.181082,6.7744957 10.075001,6.9017499 9.97599,7.0360718 9.876979,7.1703912 9.785043,7.3117833 9.69664,7.4531754 9.615312,7.5981027 9.537519,7.7465625 9.463261,7.8950223 9.396076,8.0505549 9.335966,8.2025499 9.275856,8.3616151 9.226352,8.5206803 9.176848,8.6797455 9.137949,8.8423483 9.099048,9.0049486 9.070762,9.1710866 9.045994,9.3336894 9.024753,9.4998248 9.010618,9.6659603 l -0.00708,0.169668 -0.00353,0.1661377 0.00353,0.166136 0.00708,0.166135 0.014135,0.166138 0.021241,0.166135 0.024768,0.166136 0.028286,0.166135 0.038901,0.162603 0.038899,0.1626 0.049504,0.159066 0.049504,0.159065 0.06011,0.155532 0.06011,0.155533 0.067185,0.151995 0.074258,0.151995 0.077793,0.14846 0.081328,0.144927 0.088403,0.141392 0.091936,0.13786 0.099011,0.137859 0.099011,0.130787 0.106081,0.130787 0.109619,0.127254 0.116692,0.120184 0.116691,0.120181 0.12376,0.113114 0.123764,0.109578 0.130832,0.106044 0.130835,0.102511 0.137905,0.09544 0.137905,0.09191 0.14144,0.08837 0.148515,0.0813 0.144975,0.07777 0.15205,0.07423 0.152051,0.06716 0.155585,0.06363 0.155586,0.05655 0.159123,0.05302 0.159123,0.04595 0.162658,0.04242 0.162659,0.03535 0.166193,0.03181 0.166196,0.02472 0.162658,0.01769 0.169731,0.01416 0.166194,0.01061 h 0.166195 0.166194 l 0.166196,-0.01061 0.169731,-0.01416 0.162658,-0.01769 0.166196,-0.02472 0.166193,-0.03181 0.162659,-0.03535 0.162658,-0.04242 0.159123,-0.04595 0.159123,-0.05302 0.155586,-0.05655 0.155585,-0.06363 0.152051,-0.06716 0.15205,-0.07423 0.14498,-0.07777 0.148513,-0.0813 0.14144,-0.08837 0.137905,-0.09191 0.137905,-0.09544 0.130834,-0.102511 0.130835,-0.106044 0.123759,-0.109578 0.123762,-0.113114 0.116692,-0.120181 0.116691,-0.120184 0.109619,-0.127254 0.106082,-0.130787 0.09901,-0.130787 0.09901,-0.137859 0.09194,-0.13786 0.0884,-0.141392 0.08133,-0.144927 0.07779,-0.14846 0.07426,-0.151995 0.06718,-0.151995 0.06011,-0.155533 0.06011,-0.155532 0.0495,-0.159065 0.0495,-0.159066 0.0389,-0.1626 0.0389,-0.162603 0.02829,-0.166135 0.02477,-0.166136 0.02124,-0.166135 0.01414,-0.166138 0.0071,-0.166135 z"
     id="path2" />
  <path
     style="fill:none;stroke:none;stroke-width:0;stroke-linecap:round;stroke-linejoin:round;stroke-miterlimit:4;stroke-dasharray:none;stroke-opacity:1"
     d="M 0,24 H 24 V 0 H 0 Z"
     id="path1" />
</svg>
