<?xml version="1.0" encoding="UTF-8" standalone="no"?>
<svg
   width="24"
   height="24"
   viewBox="0 0 24 24"
   version="1.1"
   id="svg8"
   xmlns="http://www.w3.org/2000/svg"
   xmlns:svg="http://www.w3.org/2000/svg"
   xmlns:rdf="http://www.w3.org/1999/02/22-rdf-syntax-ns#"
   xmlns:cc="http://creativecommons.org/ns#"
   xmlns:dc="http://purl.org/dc/elements/1.1/">
  <defs
     id="defs2" />
  <metadata
     id="metadata5">
    <rdf:RDF>
      <cc:Work
         rdf:about="">
        <dc:format>image/svg+xml</dc:format>
        <dc:type
           rdf:resource="http://purl.org/dc/dcmitype/StillImage" />
      </cc:Work>
    </rdf:RDF>
  </metadata>
  <path
     style="fill:none;stroke:none;stroke-width:0;stroke-linecap:round;stroke-linejoin:round;stroke-miterlimit:4;stroke-dasharray:none;stroke-opacity:1"
     d="M 0,24 H 24 V 0 H 0 Z"
     id="path2" />
  <path
     id="path1"
     style="fill:#000000;fill-opacity:1;stroke:none;stroke-width:0;stroke-linecap:round;stroke-linejoin:round;stroke-miterlimit:4;stroke-dasharray:none;stroke-opacity:1"
     d="m 12.000014,3.9999994 c -0.405147,-1.151e-4 -0.810163,0.030527 -1.21111,0.092342 L 10.362,6.2251582 C 9.9156045,6.3572381 9.4817551,6.5315514 9.0750885,6.7588796 L 7.2641085,5.5498237 C 6.6106181,6.0309321 6.0336634,6.6107743 5.5506378,7.2626239 L 6.7603695,9.0763793 C 6.5342908,9.4829325 6.3537163,9.9152712 6.225965,10.362617 L 4.0890363,10.78918 c -0.118526,0.801319 -0.118909,1.620264 0,2.421557 L 6.225965,13.6373 c 0.1274054,0.44865 0.3105023,0.880839 0.5344045,1.289683 l -1.2097317,1.81031 c 0.4814846,0.652687 1.0609889,1.231123 1.7134707,1.712802 l 1.81098,-1.209056 c 0.4065025,0.227275 0.840646,0.402056 1.2869115,0.534065 l 0.426904,2.135917 c 0.801703,0.11908 1.620471,0.118198 2.42222,0 l 0.423458,-2.135917 c 0.448078,-0.130444 0.881736,-0.30839 1.290359,-0.534065 l 1.810978,1.209056 c 0.651575,-0.482959 1.230259,-1.061387 1.713471,-1.712802 l -1.209731,-1.81031 C 17.466305,14.518852 17.642,14.084791 17.774062,13.6373 l 2.133483,-0.426563 c 0.123489,-0.801429 0.123061,-1.620078 0,-2.421557 L 17.774062,10.362617 C 17.641665,9.9163995 17.468477,9.482291 17.239659,9.0763793 L 18.44939,7.2626239 C 17.964482,6.6119021 17.388739,6.0323975 16.735919,5.5498237 L 14.924941,6.7588796 C 14.516366,6.5332315 14.08264,6.355592 13.634582,6.2251582 L 13.211124,4.0923411 c -0.400957,-0.061354 -0.805963,-0.092226 -1.21111,-0.092342 z m 0.132654,3.9889534 c 2.070663,0.022098 3.928109,1.9342249 3.867281,4.0127282 0.01562,0.801852 -0.24897,1.597346 -0.701513,2.255481 -0.908157,1.42269 -2.793327,2.062672 -4.397207,1.594616 C 9.1022482,15.399076 7.8518842,13.526782 8.0049014,11.69847 8.0882652,9.6938644 9.946451,8.0010181 11.931792,7.9927434 c 0.06718,-0.00328 0.13408,-0.00454 0.200877,-0.0038 z" />
</svg>
