<?xml version="1.0" encoding="utf-8"?>
<!-- Generated by IcoMoon.io -->
<!DOCTYPE svg PUBLIC "-//W3C//DTD SVG 1.1//EN" "http://www.w3.org/Graphics/SVG/1.1/DTD/svg11.dtd">
<svg version="1.1" xmlns="http://www.w3.org/2000/svg" xmlns:xlink="http://www.w3.org/1999/xlink" width="25" height="25" viewBox="0 0 25 25">
<g>
</g>
	<path d="M25 12.5c-0.031-1.632-0.385-3.26-1.039-4.748-0.652-1.489-1.598-2.838-2.76-3.953-1.161-1.116-2.538-1.998-4.028-2.579-1.489-0.584-3.091-0.863-4.673-0.829-1.582 0.031-3.158 0.375-4.598 1.010-1.442 0.632-2.748 1.55-3.827 2.675-1.080 1.125-1.933 2.459-2.495 3.901-0.564 1.442-0.833 2.991-0.799 4.523 0.031 1.532 0.365 3.055 0.98 4.448 0.612 1.394 1.501 2.657 2.591 3.7 1.089 1.044 2.38 1.868 3.775 2.41 1.394 0.545 2.892 0.803 4.374 0.77 1.482-0.031 2.953-0.355 4.299-0.95 1.346-0.593 2.566-1.452 3.573-2.506 1.008-1.053 1.803-2.301 2.326-3.648 0.318-0.817 0.534-1.67 0.648-2.534 0.030 0.002 0.061 0.003 0.092 0.003 0.863 0 1.563-0.7 1.563-1.563 0-0.044-0.002-0.087-0.006-0.13h0.006zM22.517 16.649c-0.573 1.299-1.403 2.476-2.421 3.447-1.017 0.972-2.222 1.738-3.522 2.241-1.3 0.505-2.693 0.743-4.074 0.71-1.382-0.032-2.749-0.335-4-0.89-1.251-0.553-2.385-1.355-3.32-2.337-0.936-0.981-1.673-2.143-2.156-3.395-0.485-1.252-0.714-2.593-0.68-3.925 0.032-1.332 0.325-2.647 0.861-3.85 0.534-1.204 1.306-2.294 2.252-3.194 0.946-0.9 2.064-1.608 3.268-2.072 1.205-0.465 2.494-0.684 3.775-0.65 1.282 0.032 2.545 0.315 3.7 0.831 1.156 0.514 2.204 1.257 3.067 2.168 0.864 0.91 1.543 1.985 1.987 3.142 0.446 1.157 0.654 2.394 0.621 3.625h0.006c-0.004 0.043-0.006 0.086-0.006 0.13 0 0.806 0.61 1.469 1.394 1.553-0.152 0.85-0.404 1.68-0.751 2.466z" fill="#ffffff" />
</svg>
